NotoSerifHebrew-CondensedBold.ufo
<glyph name="etnahtaleft-hb" format="2">
  <unicode hex="0591"/>
  <note>
uni0591
</note>
  <anchor x="148" y="0" name="_bottomleft"/>
  <outline>
    <contour>
      <point x="127" y="-78" type="line"/>
      <point x="127" y="-125" type="line"/>
      <point x="100" y="-131"/>
      <point x="82" y="-146"/>
      <point x="72" y="-169" type="curve" smooth="yes"/>
      <point x="63" y="-190"/>
      <point x="59" y="-208"/>
      <point x="59" y="-235" type="curve" smooth="yes"/>
      <point x="59" y="-251"/>
      <point x="60" y="-265"/>
      <point x="62" y="-279" type="curve"/>
      <point x="104" y="-276" type="line"/>
      <point x="102" y="-260"/>
      <point x="102" y="-247"/>
      <point x="102" y="-235" type="curve" smooth="yes"/>
      <point x="102" y="-190"/>
      <point x="117" y="-168"/>
      <point x="148" y="-168" type="curve" smooth="yes"/>
      <point x="178" y="-168"/>
      <point x="196" y="-191"/>
      <point x="196" y="-237" type="curve" smooth="yes"/>
      <point x="196" y="-251"/>
      <point x="195" y="-262"/>
      <point x="194" y="-279" type="curve"/>
      <point x="236" y="-276" type="line"/>
      <point x="237" y="-261"/>
      <point x="238" y="-246"/>
      <point x="238" y="-230" type="curve" smooth="yes"/>
      <point x="238" y="-206"/>
      <point x="236" y="-190"/>
      <point x="226" y="-168" type="curve" smooth="yes"/>
      <point x="216" y="-147"/>
      <point x="198" y="-131"/>
      <point x="171" y="-125" type="curve"/>
      <point x="171" y="-75" type="line"/>
    </contour>
  </outline>
</glyph>
<glyph name="segolta-hb" format="2">
  <unicode hex="0592"/>
  <note>
uni0592
</note>
  <anchor x="211" y="536" name="_topleft"/>
  <outline>
    <contour>
      <point x="151" y="767" type="curve" smooth="yes"/>
      <point x="172" y="767"/>
      <point x="189" y="779"/>
      <point x="189" y="805" type="curve" smooth="yes"/>
      <point x="189" y="833"/>
      <point x="172" y="845"/>
      <point x="151" y="845" type="curve" smooth="yes"/>
      <point x="130" y="845"/>
      <point x="114" y="833"/>
      <point x="114" y="805" type="curve"/>
      <point x="114" y="779"/>
      <point x="130" y="767"/>
    </contour>
    <contour>
      <point x="96" y="662" type="curve" smooth="yes"/>
      <point x="117" y="662"/>
      <point x="135" y="675"/>
      <point x="135" y="702" type="curve" smooth="yes"/>
      <point x="135" y="729"/>
      <point x="117" y="741"/>
      <point x="96" y="741" type="curve" smooth="yes"/>
      <point x="76" y="741"/>
      <point x="59" y="729"/>
      <point x="59" y="702" type="curve"/>
      <point x="59" y="675"/>
      <point x="76" y="662"/>
    </contour>
    <contour>
      <point x="205" y="662" type="curve" smooth="yes"/>
      <point x="226" y="662"/>
      <point x="243" y="675"/>
      <point x="243" y="702" type="curve" smooth="yes"/>
      <point x="243" y="729"/>
      <point x="226" y="741"/>
      <point x="205" y="741" type="curve" smooth="yes"/>
      <point x="184" y="741"/>
      <point x="167" y="729"/>
      <point x="167" y="702" type="curve"/>
      <point x="167" y="675"/>
      <point x="184" y="662"/>
    </contour>
  </outline>
</glyph>
<glyph name="shalshelet-hb" format="2">
  <unicode hex="0593"/>
  <note>
uni0593
</note>
  <anchor x="131" y="536" name="_top"/>
  <outline>
    <contour>
      <point x="57" y="642" type="line"/>
      <point x="116" y="642" type="line"/>
      <point x="205" y="689" type="line"/>
      <point x="126" y="737" type="line"/>
      <point x="205" y="784" type="line"/>
      <point x="126" y="832" type="line"/>
      <point x="205" y="879" type="line"/>
      <point x="136" y="879" type="line"/>
      <point x="57" y="832" type="line"/>
      <point x="136" y="784" type="line"/>
      <point x="57" y="737" type="line"/>
      <point x="136" y="689" type="line"/>
    </contour>
  </outline>
</glyph>
<glyph name="zaqefqatan-hb" format="2">
  <unicode hex="0594"/>
  <note>
uni0594
</note>
  <anchor x="92" y="536" name="_top"/>
  <outline>
    <contour>
      <point x="91" y="766" type="curve" smooth="yes"/>
      <point x="112" y="766"/>
      <point x="129" y="778"/>
      <point x="129" y="805" type="curve" smooth="yes"/>
      <point x="129" y="832"/>
      <point x="112" y="845"/>
      <point x="91" y="845" type="curve" smooth="yes"/>
      <point x="70" y="845"/>
      <point x="54" y="832"/>
      <point x="54" y="805" type="curve" smooth="yes"/>
      <point x="54" y="778"/>
      <point x="70" y="766"/>
    </contour>
    <contour>
      <point x="91" y="662" type="curve" smooth="yes"/>
      <point x="112" y="662"/>
      <point x="129" y="674"/>
      <point x="129" y="702" type="curve" smooth="yes"/>
      <point x="129" y="728"/>
      <point x="112" y="740"/>
      <point x="91" y="740" type="curve" smooth="yes"/>
      <point x="70" y="740"/>
      <point x="54" y="728"/>
      <point x="54" y="702" type="curve" smooth="yes"/>
      <point x="54" y="674"/>
      <point x="70" y="662"/>
    </contour>
  </outline>
</glyph>
<glyph name="zaqefgadol-hb" format="2">
  <unicode hex="0595"/>
  <note>
uni0595
</note>
  <anchor x="139" y="536" name="_top"/>
  <outline>
    <contour>
      <point x="58" y="662" type="line"/>
      <point x="105" y="665" type="line"/>
      <point x="105" y="845" type="line"/>
      <point x="58" y="842" type="line"/>
    </contour>
    <contour>
      <point x="182" y="662" type="curve" smooth="yes"/>
      <point x="203" y="662"/>
      <point x="220" y="674"/>
      <point x="220" y="702" type="curve" smooth="yes"/>
      <point x="220" y="728"/>
      <point x="203" y="740"/>
      <point x="182" y="740" type="curve" smooth="yes"/>
      <point x="161" y="740"/>
      <point x="144" y="728"/>
      <point x="144" y="702" type="curve" smooth="yes"/>
      <point x="144" y="674"/>
      <point x="161" y="662"/>
    </contour>
    <contour>
      <point x="182" y="766" type="curve" smooth="yes"/>
      <point x="203" y="766"/>
      <point x="220" y="778"/>
      <point x="220" y="805" type="curve" smooth="yes"/>
      <point x="220" y="832"/>
      <point x="203" y="845"/>
      <point x="182" y="845" type="curve" smooth="yes"/>
      <point x="161" y="845"/>
      <point x="144" y="832"/>
      <point x="144" y="805" type="curve" smooth="yes"/>
      <point x="144" y="778"/>
      <point x="161" y="766"/>
    </contour>
  </outline>
</glyph>
<glyph name="reviamugrash-hb" format="2">
  <unicode hex="0597"/>
  <note>
uni0597
</note>
  <anchor x="164" y="536" name="_topleft"/>
  <outline>
    <contour>
      <point x="129" y="640" type="line"/>
      <point x="201" y="727" type="line"/>
      <point x="129" y="815" type="line"/>
      <point x="57" y="727" type="line"/>
    </contour>
  </outline>
</glyph>
<glyph name="zarqa-hb" format="2">
  <unicode hex="0598"/>
  <note>
uni0598
</note>
  <anchor x="206" y="536" name="_top"/>
  <outline>
    <contour>
      <point x="116" y="642" type="curve"/>
      <point x="129" y="679" type="line"/>
      <point x="111" y="688"/>
      <point x="101" y="701"/>
      <point x="101" y="724" type="curve" smooth="yes"/>
      <point x="101" y="749"/>
      <point x="114" y="764"/>
      <point x="132" y="764" type="curve" smooth="yes"/>
      <point x="153" y="764"/>
      <point x="164" y="752"/>
      <point x="192" y="708" type="curve" smooth="yes"/>
      <point x="224" y="658"/>
      <point x="248" y="643"/>
      <point x="280" y="643" type="curve" smooth="yes"/>
      <point x="319" y="643"/>
      <point x="348" y="673"/>
      <point x="348" y="720" type="curve" smooth="yes"/>
      <point x="348" y="760"/>
      <point x="331" y="787"/>
      <point x="296" y="802" type="curve"/>
      <point x="283" y="764" type="line"/>
      <point x="301" y="756"/>
      <point x="311" y="742"/>
      <point x="311" y="720" type="curve" smooth="yes"/>
      <point x="311" y="694"/>
      <point x="298" y="680"/>
      <point x="280" y="680" type="curve" smooth="yes"/>
      <point x="260" y="680"/>
      <point x="245" y="695"/>
      <point x="220" y="734" type="curve" smooth="yes"/>
      <point x="186" y="786"/>
      <point x="164" y="801"/>
      <point x="134" y="801" type="curve" smooth="yes"/>
      <point x="93" y="801"/>
      <point x="64" y="769"/>
      <point x="64" y="724" type="curve" smooth="yes"/>
      <point x="64" y="682"/>
      <point x="81" y="654"/>
    </contour>
  </outline>
</glyph>
<glyph name="pashta-hb" format="2">
  <unicode hex="0599"/>
  <note>
uni0599
</note>
  <anchor x="162" y="536" name="_topleft"/>
  <outline>
    <contour>
      <point x="55" y="811" type="line"/>
      <point x="81" y="804"/>
      <point x="98" y="792"/>
      <point x="105" y="777" type="curve" smooth="yes"/>
      <point x="117" y="753"/>
      <point x="115" y="697"/>
      <point x="112" y="657" type="curve"/>
      <point x="157" y="660" type="line"/>
      <point x="162" y="728"/>
      <point x="162" y="777"/>
      <point x="142" y="807" type="curve" smooth="yes"/>
      <point x="126" y="832"/>
      <point x="98" y="853"/>
      <point x="59" y="863" type="curve"/>
    </contour>
  </outline>
</glyph>
<glyph name="yetiv-hb" format="2">
  <unicode hex="059A"/>
  <note>
uni059A
</note>
  <anchor x="166" y="0" name="_bottomleft"/>
  <outline>
    <contour>
      <point x="145" y="-264" type="line"/>
      <point x="183" y="-239" type="line"/>
      <point x="117" y="-167" type="line"/>
      <point x="183" y="-95" type="line"/>
      <point x="145" y="-70" type="line"/>
      <point x="56" y="-167" type="line"/>
    </contour>
  </outline>
</glyph>
<glyph name="tevirleft-hb" format="2">
  <unicode hex="059B"/>
  <note>
uni059B
</note>
  <anchor x="193" y="0" name="_bottomleft"/>
  <outline>
    <contour>
      <point x="90" y="-161" type="curve" smooth="yes"/>
      <point x="110" y="-161"/>
      <point x="124" y="-145"/>
      <point x="124" y="-124" type="curve" smooth="yes"/>
      <point x="124" y="-103"/>
      <point x="110" y="-87"/>
      <point x="90" y="-87" type="curve" smooth="yes"/>
      <point x="72" y="-87"/>
      <point x="58" y="-104"/>
      <point x="58" y="-124" type="curve" smooth="yes"/>
      <point x="58" y="-145"/>
      <point x="72" y="-161"/>
    </contour>
    <contour>
      <point x="111" y="-238" type="curve"/>
      <point x="109" y="-290" type="line"/>
      <point x="148" y="-280"/>
      <point x="180" y="-259"/>
      <point x="196" y="-234" type="curve" smooth="yes"/>
      <point x="215" y="-204"/>
      <point x="215" y="-155"/>
      <point x="210" y="-87" type="curve"/>
      <point x="166" y="-90" type="line"/>
      <point x="169" y="-130"/>
      <point x="170" y="-180"/>
      <point x="159" y="-204" type="curve" smooth="yes"/>
      <point x="151" y="-219"/>
      <point x="137" y="-231"/>
    </contour>
  </outline>
</glyph>
<glyph name="gereshaccent-hb" format="2">
  <unicode hex="059C"/>
  <note>
uni059C
</note>
  <anchor x="76" y="536" name="_topleft"/>
  <outline>
    <contour>
      <point x="160" y="811" type="curve"/>
      <point x="156" y="863" type="line"/>
      <point x="117" y="853"/>
      <point x="89" y="832"/>
      <point x="73" y="807" type="curve" smooth="yes"/>
      <point x="53" y="777"/>
      <point x="53" y="728"/>
      <point x="58" y="660" type="curve"/>
      <point x="103" y="657" type="line"/>
      <point x="100" y="697"/>
      <point x="98" y="753"/>
      <point x="110" y="777" type="curve" smooth="yes"/>
      <point x="117" y="792"/>
      <point x="134" y="804"/>
    </contour>
  </outline>
</glyph>
<glyph name="gereshmuqdam-hb" format="2">
  <unicode hex="059D"/>
  <note>
uni059D
</note>
  <anchor x="151" y="536" name="_top"/>
  <outline>
    <contour>
      <point x="160" y="811" type="curve"/>
      <point x="156" y="863" type="line"/>
      <point x="117" y="853"/>
      <point x="89" y="832"/>
      <point x="73" y="807" type="curve" smooth="yes"/>
      <point x="53" y="777"/>
      <point x="53" y="728"/>
      <point x="58" y="660" type="curve"/>
      <point x="103" y="657" type="line"/>
      <point x="100" y="697"/>
      <point x="98" y="753"/>
      <point x="110" y="777" type="curve" smooth="yes"/>
      <point x="117" y="792"/>
      <point x="134" y="804"/>
    </contour>
  </outline>
</glyph>
<glyph name="gershayimaccent-hb" format="2">
  <unicode hex="059E"/>
  <note>
uni059E
</note>
  <anchor x="152" y="536" name="_top"/>
  <outline>
    <contour>
      <point x="166" y="811" type="curve"/>
      <point x="162" y="863" type="line"/>
      <point x="123" y="853"/>
      <point x="95" y="832"/>
      <point x="79" y="807" type="curve" smooth="yes"/>
      <point x="59" y="777"/>
      <point x="59" y="728"/>
      <point x="64" y="660" type="curve"/>
      <point x="109" y="657" type="line"/>
      <point x="106" y="697"/>
      <point x="104" y="753"/>
      <point x="116" y="777" type="curve" smooth="yes"/>
      <point x="123" y="792"/>
      <point x="140" y="804"/>
    </contour>
    <contour>
      <point x="286" y="811" type="curve"/>
      <point x="282" y="863" type="line"/>
      <point x="243" y="853"/>
      <point x="215" y="832"/>
      <point x="199" y="807" type="curve" smooth="yes"/>
      <point x="179" y="777"/>
      <point x="179" y="728"/>
      <point x="184" y="660" type="curve"/>
      <point x="229" y="657" type="line"/>
      <point x="226" y="697"/>
      <point x="224" y="753"/>
      <point x="236" y="777" type="curve" smooth="yes"/>
      <point x="243" y="792"/>
      <point x="260" y="804"/>
    </contour>
  </outline>
</glyph>
<glyph name="qarneypara-hb" format="2">
  <unicode hex="059F"/>
  <note>
uni059F
</note>
  <anchor x="277" y="536" name="_top"/>
  <outline>
    <contour>
      <point x="322" y="660" type="line"/>
      <point x="356" y="698" type="line"/>
      <point x="369" y="691"/>
      <point x="382" y="688"/>
      <point x="398" y="688" type="curve" smooth="yes"/>
      <point x="446" y="688"/>
      <point x="483" y="729"/>
      <point x="483" y="781" type="curve" smooth="yes"/>
      <point x="483" y="834"/>
      <point x="445" y="874"/>
      <point x="398" y="874" type="curve" smooth="yes"/>
      <point x="351" y="874"/>
      <point x="312" y="833"/>
      <point x="312" y="781" type="curve" smooth="yes"/>
      <point x="312" y="764"/>
      <point x="317" y="748"/>
      <point x="324" y="735" type="curve"/>
      <point x="289" y="696" type="line"/>
    </contour>
    <contour>
      <point x="232" y="660" type="line"/>
      <point x="265" y="696" type="line"/>
      <point x="230" y="735" type="line"/>
      <point x="237" y="748"/>
      <point x="242" y="764"/>
      <point x="242" y="781" type="curve" smooth="yes"/>
      <point x="242" y="833"/>
      <point x="203" y="874"/>
      <point x="156" y="874" type="curve" smooth="yes"/>
      <point x="109" y="874"/>
      <point x="71" y="833"/>
      <point x="71" y="781" type="curve" smooth="yes"/>
      <point x="71" y="729"/>
      <point x="108" y="688"/>
      <point x="156" y="688" type="curve" smooth="yes"/>
      <point x="172" y="688"/>
      <point x="185" y="691"/>
      <point x="198" y="698" type="curve"/>
    </contour>
    <contour>
      <point x="157" y="734" type="curve" smooth="yes"/>
      <point x="133" y="734"/>
      <point x="113" y="756"/>
      <point x="113" y="781" type="curve" smooth="yes"/>
      <point x="113" y="806"/>
      <point x="134" y="828"/>
      <point x="157" y="828" type="curve" smooth="yes"/>
      <point x="179" y="828"/>
      <point x="199" y="807"/>
      <point x="199" y="781" type="curve" smooth="yes"/>
      <point x="199" y="755"/>
      <point x="180" y="734"/>
    </contour>
    <contour>
      <point x="397" y="734" type="curve" smooth="yes"/>
      <point x="374" y="734"/>
      <point x="355" y="755"/>
      <point x="355" y="781" type="curve" smooth="yes"/>
      <point x="355" y="807"/>
      <point x="375" y="828"/>
      <point x="397" y="828" type="curve" smooth="yes"/>
      <point x="420" y="828"/>
      <point x="441" y="806"/>
      <point x="441" y="781" type="curve" smooth="yes"/>
      <point x="441" y="756"/>
      <point x="421" y="734"/>
    </contour>
  </outline>
</glyph>
<glyph name="telishagedola-hb" format="2">
  <unicode hex="05A0"/>
  <note>
uni05A0
</note>
  <anchor x="157" y="536" name="_top"/>
  <outline>
    <contour>
      <point x="92" y="660" type="line"/>
      <point x="127" y="698" type="line"/>
      <point x="140" y="691"/>
      <point x="153" y="688"/>
      <point x="169" y="688" type="curve" smooth="yes"/>
      <point x="217" y="688"/>
      <point x="254" y="729"/>
      <point x="254" y="781" type="curve" smooth="yes"/>
      <point x="254" y="834"/>
      <point x="216" y="874"/>
      <point x="169" y="874" type="curve" smooth="yes"/>
      <point x="122" y="874"/>
      <point x="83" y="833"/>
      <point x="83" y="781" type="curve" smooth="yes"/>
      <point x="83" y="764"/>
      <point x="88" y="748"/>
      <point x="95" y="735" type="curve"/>
      <point x="60" y="696" type="line"/>
    </contour>
    <contour>
      <point x="168" y="734" type="curve" smooth="yes"/>
      <point x="145" y="734"/>
      <point x="126" y="755"/>
      <point x="126" y="781" type="curve" smooth="yes"/>
      <point x="126" y="807"/>
      <point x="146" y="828"/>
      <point x="168" y="828" type="curve" smooth="yes"/>
      <point x="191" y="828"/>
      <point x="212" y="806"/>
      <point x="212" y="781" type="curve" smooth="yes"/>
      <point x="212" y="756"/>
      <point x="192" y="734"/>
    </contour>
  </outline>
</glyph>
<glyph name="pazer-hb" format="2">
  <unicode hex="05A1"/>
  <note>
uni05A1
</note>
  <anchor x="136" y="536" name="_top"/>
  <outline>
    <contour>
      <point x="58" y="657" type="line"/>
      <point x="105" y="660" type="line"/>
      <point x="105" y="713" type="line"/>
      <point x="112" y="709"/>
      <point x="121" y="707"/>
      <point x="131" y="707" type="curve" smooth="yes"/>
      <point x="187" y="707"/>
      <point x="214" y="746"/>
      <point x="214" y="807" type="curve" smooth="yes"/>
      <point x="214" y="833" type="line"/>
      <point x="166" y="830" type="line"/>
      <point x="166" y="807" type="line" smooth="yes"/>
      <point x="166" y="768"/>
      <point x="155" y="755"/>
      <point x="126" y="755" type="curve" smooth="yes"/>
      <point x="114" y="755"/>
      <point x="110" y="757"/>
      <point x="105" y="762" type="curve"/>
      <point x="105" y="833" type="line"/>
      <point x="58" y="830" type="line"/>
    </contour>
  </outline>
</glyph>
<glyph name="atnahhafukh-hb" format="2">
  <unicode hex="05A2"/>
  <note>
uni05A2
</note>
  <anchor x="149" y="0" name="_bottomleft"/>
  <outline>
    <contour>
      <point x="170" y="-286" type="line"/>
      <point x="170" y="-239" type="line"/>
      <point x="197" y="-233"/>
      <point x="215" y="-218"/>
      <point x="225" y="-195" type="curve" smooth="yes"/>
      <point x="234" y="-174"/>
      <point x="238" y="-156"/>
      <point x="238" y="-129" type="curve" smooth="yes"/>
      <point x="238" y="-113"/>
      <point x="237" y="-99"/>
      <point x="235" y="-85" type="curve"/>
      <point x="194" y="-88" type="line"/>
      <point x="195" y="-104"/>
      <point x="195" y="-117"/>
      <point x="195" y="-129" type="curve" smooth="yes"/>
      <point x="195" y="-174"/>
      <point x="180" y="-196"/>
      <point x="149" y="-196" type="curve" smooth="yes"/>
      <point x="119" y="-196"/>
      <point x="101" y="-173"/>
      <point x="101" y="-127" type="curve" smooth="yes"/>
      <point x="101" y="-113"/>
      <point x="102" y="-102"/>
      <point x="104" y="-85" type="curve"/>
      <point x="61" y="-88" type="line"/>
      <point x="60" y="-103"/>
      <point x="59" y="-118"/>
      <point x="59" y="-134" type="curve" smooth="yes"/>
      <point x="59" y="-158"/>
      <point x="61" y="-174"/>
      <point x="71" y="-196" type="curve" smooth="yes"/>
      <point x="81" y="-217"/>
      <point x="99" y="-233"/>
      <point x="126" y="-239" type="curve"/>
      <point x="126" y="-289" type="line"/>
    </contour>
  </outline>
</glyph>
<glyph name="munahleft-hb" format="2">
  <unicode hex="05A3"/>
  <note>
uni05A3
</note>
  <anchor x="203" y="0" name="_bottomleft"/>
  <outline>
    <contour>
      <point x="57" y="-228" type="line"/>
      <point x="196" y="-228" type="line"/>
      <point x="196" y="-81" type="line"/>
      <point x="151" y="-84" type="line"/>
      <point x="151" y="-179" type="line"/>
      <point x="60" y="-179" type="line"/>
    </contour>
  </outline>
</glyph>
<glyph name="mahapakhleft-hb" format="2">
  <unicode hex="05A4"/>
  <note>
uni05A4
</note>
  <anchor x="167" y="0" name="_bottomleft"/>
  <outline>
    <contour>
      <point x="145" y="-264" type="line"/>
      <point x="183" y="-239" type="line"/>
      <point x="117" y="-167" type="line"/>
      <point x="183" y="-95" type="line"/>
      <point x="145" y="-70" type="line"/>
      <point x="56" y="-167" type="line"/>
    </contour>
  </outline>
</glyph>
<glyph name="merkhaleft-hb" format="2">
  <unicode hex="05A5"/>
  <note>
uni05A5
</note>
  <anchor x="157" y="0" name="_bottomleft"/>
  <outline>
    <contour>
      <point x="58" y="-238" type="curve"/>
      <point x="55" y="-290" type="line"/>
      <point x="96" y="-280"/>
      <point x="127" y="-259"/>
      <point x="143" y="-234" type="curve" smooth="yes"/>
      <point x="163" y="-204"/>
      <point x="163" y="-152"/>
      <point x="158" y="-84" type="curve"/>
      <point x="113" y="-87" type="line"/>
      <point x="116" y="-127"/>
      <point x="118" y="-180"/>
      <point x="106" y="-204" type="curve" smooth="yes"/>
      <point x="99" y="-219"/>
      <point x="82" y="-231"/>
    </contour>
  </outline>
</glyph>
<glyph name="merkhakefulaleft-hb" format="2">
  <unicode hex="05A6"/>
  <note>
uni05A6
</note>
  <anchor x="191" y="0" name="_bottomleft"/>
  <outline>
    <contour>
      <point x="181" y="-235" type="curve"/>
      <point x="184" y="-287" type="line"/>
      <point x="225" y="-277"/>
      <point x="250" y="-256"/>
      <point x="267" y="-231" type="curve" smooth="yes"/>
      <point x="286" y="-201"/>
      <point x="286" y="-149"/>
      <point x="281" y="-80" type="curve"/>
      <point x="237" y="-83" type="line"/>
      <point x="239" y="-121"/>
      <point x="241" y="-177"/>
      <point x="229" y="-201" type="curve" smooth="yes"/>
      <point x="222" y="-216"/>
      <point x="205" y="-228"/>
    </contour>
    <contour>
      <point x="61" y="-235" type="curve"/>
      <point x="64" y="-287" type="line"/>
      <point x="105" y="-277"/>
      <point x="130" y="-256"/>
      <point x="147" y="-231" type="curve" smooth="yes"/>
      <point x="166" y="-201"/>
      <point x="166" y="-149"/>
      <point x="161" y="-80" type="curve"/>
      <point x="117" y="-83" type="line"/>
      <point x="119" y="-121"/>
      <point x="121" y="-177"/>
      <point x="109" y="-201" type="curve" smooth="yes"/>
      <point x="102" y="-216"/>
      <point x="85" y="-228"/>
    </contour>
  </outline>
</glyph>
<glyph name="dargaleft-hb" format="2">
  <unicode hex="05A7"/>
  <note>
uni05A7
</note>
  <anchor x="182" y="0" name="_bottomleft"/>
  <outline>
    <contour>
      <point x="69" y="-240" type="line"/>
      <point x="188" y="-216" type="line"/>
      <point x="117" y="-113" type="line"/>
      <point x="177" y="-101" type="line"/>
      <point x="177" y="-66" type="line"/>
      <point x="57" y="-90" type="line"/>
      <point x="128" y="-193" type="line"/>
      <point x="69" y="-203" type="line"/>
    </contour>
  </outline>
</glyph>
<glyph name="telishaqetana-hb" format="2">
  <unicode hex="05A9"/>
  <note>
uni05A9
</note>
  <anchor x="144" y="536" name="_topleft"/>
  <outline>
    <contour>
      <point x="222" y="660" type="line"/>
      <point x="254" y="696" type="line"/>
      <point x="219" y="735" type="line"/>
      <point x="226" y="748"/>
      <point x="231" y="764"/>
      <point x="231" y="781" type="curve" smooth="yes"/>
      <point x="231" y="833"/>
      <point x="192" y="874"/>
      <point x="145" y="874" type="curve" smooth="yes"/>
      <point x="98" y="874"/>
      <point x="60" y="833"/>
      <point x="60" y="781" type="curve" smooth="yes"/>
      <point x="60" y="729"/>
      <point x="97" y="688"/>
      <point x="145" y="688" type="curve" smooth="yes"/>
      <point x="161" y="688"/>
      <point x="174" y="691"/>
      <point x="187" y="698" type="curve"/>
    </contour>
    <contour>
      <point x="146" y="734" type="curve" smooth="yes"/>
      <point x="122" y="734"/>
      <point x="102" y="756"/>
      <point x="102" y="781" type="curve" smooth="yes"/>
      <point x="102" y="806"/>
      <point x="123" y="828"/>
      <point x="146" y="828" type="curve" smooth="yes"/>
      <point x="168" y="828"/>
      <point x="188" y="807"/>
      <point x="188" y="781" type="curve" smooth="yes"/>
      <point x="188" y="755"/>
      <point x="169" y="734"/>
    </contour>
  </outline>
</glyph>
<glyph name="ole-hb" format="2">
  <unicode hex="05AB"/>
  <note>
uni05AB
</note>
  <anchor x="125" y="536" name="_top"/>
  <outline>
    <contour>
      <point x="145" y="648" type="line"/>
      <point x="183" y="673" type="line"/>
      <point x="117" y="745" type="line"/>
      <point x="183" y="817" type="line"/>
      <point x="145" y="842" type="line"/>
      <point x="56" y="745" type="line"/>
    </contour>
  </outline>
</glyph>
<glyph name="iluy-hb" format="2">
  <unicode hex="05AC"/>
  <note>
uni05AC
</note>
  <anchor x="128" y="536" name="_top"/>
  <outline>
    <contour>
      <point x="57" y="660" type="line"/>
      <point x="196" y="660" type="line"/>
      <point x="196" y="807" type="line"/>
      <point x="151" y="804" type="line"/>
      <point x="151" y="709" type="line"/>
      <point x="60" y="709" type="line"/>
    </contour>
  </outline>
</glyph>
<glyph name="dehi-hb" format="2">
  <unicode hex="05AD"/>
  <note>
uni05AD
</note>
  <anchor x="78" y="0" name="_bottomleft"/>
  <outline>
    <contour>
      <point x="160" y="-238" type="line"/>
      <point x="134" y="-231"/>
      <point x="117" y="-219"/>
      <point x="110" y="-204" type="curve" smooth="yes"/>
      <point x="98" y="-180"/>
      <point x="100" y="-124"/>
      <point x="103" y="-84" type="curve"/>
      <point x="58" y="-87" type="line"/>
      <point x="53" y="-155"/>
      <point x="53" y="-204"/>
      <point x="73" y="-234" type="curve" smooth="yes"/>
      <point x="89" y="-259"/>
      <point x="117" y="-280"/>
      <point x="156" y="-290" type="curve"/>
    </contour>
  </outline>
</glyph>
<glyph name="zinor-hb" format="2">
  <unicode hex="05AE"/>
  <note>
uni05AE
</note>
  <anchor x="206" y="536" name="_top"/>
  <outline>
    <contour>
      <point x="116" y="660" type="curve"/>
      <point x="129" y="697" type="line"/>
      <point x="111" y="706"/>
      <point x="101" y="720"/>
      <point x="101" y="742" type="curve" smooth="yes"/>
      <point x="101" y="767"/>
      <point x="114" y="782"/>
      <point x="132" y="782" type="curve" smooth="yes"/>
      <point x="153" y="782"/>
      <point x="164" y="771"/>
      <point x="192" y="727" type="curve" smooth="yes"/>
      <point x="224" y="677"/>
      <point x="248" y="661"/>
      <point x="280" y="661" type="curve" smooth="yes"/>
      <point x="319" y="661"/>
      <point x="348" y="692"/>
      <point x="348" y="738" type="curve" smooth="yes"/>
      <point x="348" y="779"/>
      <point x="331" y="806"/>
      <point x="296" y="820" type="curve"/>
      <point x="283" y="782" type="line"/>
      <point x="301" y="774"/>
      <point x="311" y="761"/>
      <point x="311" y="738" type="curve" smooth="yes"/>
      <point x="311" y="712"/>
      <point x="298" y="698"/>
      <point x="280" y="698" type="curve" smooth="yes"/>
      <point x="260" y="698"/>
      <point x="245" y="713"/>
      <point x="220" y="753" type="curve" smooth="yes"/>
      <point x="187" y="805"/>
      <point x="164" y="819"/>
      <point x="134" y="819" type="curve" smooth="yes"/>
      <point x="93" y="819"/>
      <point x="64" y="788"/>
      <point x="64" y="742" type="curve" smooth="yes"/>
      <point x="64" y="701"/>
      <point x="81" y="672"/>
    </contour>
  </outline>
</glyph>
<glyph name="masoracircle-hb" format="2">
  <unicode hex="05AF"/>
  <note>
uni05AF
</note>
  <anchor x="142" y="536" name="_top"/>
  <outline>
    <contour>
      <point x="142" y="660" type="curve" smooth="yes"/>
      <point x="189" y="660"/>
      <point x="226" y="701"/>
      <point x="226" y="752" type="curve" smooth="yes"/>
      <point x="226" y="803"/>
      <point x="188" y="844"/>
      <point x="142" y="844" type="curve" smooth="yes"/>
      <point x="96" y="844"/>
      <point x="58" y="803"/>
      <point x="58" y="752" type="curve" smooth="yes"/>
      <point x="58" y="701"/>
      <point x="95" y="660"/>
    </contour>
    <contour>
      <point x="142" y="703" type="curve" smooth="yes"/>
      <point x="117" y="703"/>
      <point x="97" y="725"/>
      <point x="97" y="752" type="curve" smooth="yes"/>
      <point x="97" y="779"/>
      <point x="118" y="801"/>
      <point x="142" y="801" type="curve" smooth="yes"/>
      <point x="166" y="801"/>
      <point x="187" y="779"/>
      <point x="187" y="752" type="curve" smooth="yes"/>
      <point x="187" y="725"/>
      <point x="167" y="703"/>
    </contour>
  </outline>
</glyph>
<glyph name="sheva-hb" format="2">
  <unicode hex="05B0"/>
  <note>
sheva
</note>
  <anchor x="86" y="0" name="_bottom"/>
  <outline>
    <contour>
      <point x="54" y="-109" type="curve" smooth="yes"/>
      <point x="54" y="-136"/>
      <point x="70" y="-148"/>
      <point x="91" y="-148" type="curve" smooth="yes"/>
      <point x="112" y="-148"/>
      <point x="129" y="-136"/>
      <point x="129" y="-109" type="curve" smooth="yes"/>
      <point x="129" y="-82"/>
      <point x="112" y="-69"/>
      <point x="91" y="-69" type="curve" smooth="yes"/>
      <point x="70" y="-69"/>
      <point x="54" y="-82"/>
    </contour>
    <contour>
      <point x="54" y="-212" type="curve" smooth="yes"/>
      <point x="54" y="-240"/>
      <point x="70" y="-252"/>
      <point x="91" y="-252" type="curve" smooth="yes"/>
      <point x="112" y="-252"/>
      <point x="129" y="-240"/>
      <point x="129" y="-212" type="curve" smooth="yes"/>
      <point x="129" y="-186"/>
      <point x="112" y="-174"/>
      <point x="91" y="-174" type="curve" smooth="yes"/>
      <point x="70" y="-174"/>
      <point x="54" y="-186"/>
    </contour>
  </outline>
</glyph>
<glyph name="hatafsegol-hb" format="2">
  <unicode hex="05B1"/>
  <note>
hatafsegol
</note>
  <anchor x="206" y="0" name="_bottom"/>
  <outline>
    <contour>
      <point x="309" y="-252" type="curve" smooth="yes"/>
      <point x="330" y="-252"/>
      <point x="347" y="-240"/>
      <point x="347" y="-212" type="curve" smooth="yes"/>
      <point x="347" y="-186"/>
      <point x="330" y="-174"/>
      <point x="309" y="-174" type="curve" smooth="yes"/>
      <point x="288" y="-174"/>
      <point x="271" y="-186"/>
      <point x="271" y="-212" type="curve"/>
      <point x="271" y="-240"/>
      <point x="288" y="-252"/>
    </contour>
    <contour>
      <point x="156" y="-252" type="curve" smooth="yes"/>
      <point x="177" y="-252"/>
      <point x="194" y="-240"/>
      <point x="194" y="-212" type="curve" smooth="yes"/>
      <point x="194" y="-186"/>
      <point x="177" y="-174"/>
      <point x="156" y="-174" type="curve" smooth="yes"/>
      <point x="135" y="-174"/>
      <point x="119" y="-186"/>
      <point x="119" y="-212" type="curve"/>
      <point x="119" y="-240"/>
      <point x="135" y="-252"/>
    </contour>
    <contour>
      <point x="101" y="-148" type="curve" smooth="yes"/>
      <point x="122" y="-148"/>
      <point x="140" y="-136"/>
      <point x="140" y="-109" type="curve" smooth="yes"/>
      <point x="140" y="-82"/>
      <point x="122" y="-69"/>
      <point x="101" y="-69" type="curve" smooth="yes"/>
      <point x="81" y="-69"/>
      <point x="64" y="-82"/>
      <point x="64" y="-109" type="curve"/>
      <point x="64" y="-136"/>
      <point x="81" y="-148"/>
    </contour>
    <contour>
      <point x="210" y="-148" type="curve" smooth="yes"/>
      <point x="231" y="-148"/>
      <point x="248" y="-136"/>
      <point x="248" y="-109" type="curve" smooth="yes"/>
      <point x="248" y="-82"/>
      <point x="231" y="-69"/>
      <point x="210" y="-69" type="curve" smooth="yes"/>
      <point x="189" y="-69"/>
      <point x="172" y="-82"/>
      <point x="172" y="-109" type="curve"/>
      <point x="172" y="-136"/>
      <point x="189" y="-148"/>
    </contour>
    <contour>
      <point x="309" y="-148" type="curve" smooth="yes"/>
      <point x="330" y="-148"/>
      <point x="347" y="-136"/>
      <point x="347" y="-109" type="curve" smooth="yes"/>
      <point x="347" y="-82"/>
      <point x="330" y="-69"/>
      <point x="309" y="-69" type="curve" smooth="yes"/>
      <point x="288" y="-69"/>
      <point x="271" y="-82"/>
      <point x="271" y="-109" type="curve"/>
      <point x="271" y="-136"/>
      <point x="288" y="-148"/>
    </contour>
  </outline>
</glyph>
<glyph name="hatafpatah-hb" format="2">
  <unicode hex="05B2"/>
  <note>
hatafpatah
</note>
  <anchor x="192" y="0" name="_bottom"/>
  <outline>
    <contour>
      <point x="63" y="-135" type="line"/>
      <point x="206" y="-135" type="line"/>
      <point x="209" y="-82" type="line"/>
      <point x="66" y="-82" type="line"/>
    </contour>
    <contour>
      <point x="280" y="-252" type="curve" smooth="yes"/>
      <point x="301" y="-252"/>
      <point x="318" y="-240"/>
      <point x="318" y="-212" type="curve" smooth="yes"/>
      <point x="318" y="-186"/>
      <point x="301" y="-174"/>
      <point x="280" y="-174" type="curve" smooth="yes"/>
      <point x="259" y="-174"/>
      <point x="243" y="-186"/>
      <point x="243" y="-212" type="curve" smooth="yes"/>
      <point x="243" y="-240"/>
      <point x="259" y="-252"/>
    </contour>
    <contour>
      <point x="280" y="-148" type="curve" smooth="yes"/>
      <point x="301" y="-148"/>
      <point x="318" y="-136"/>
      <point x="318" y="-109" type="curve" smooth="yes"/>
      <point x="318" y="-82"/>
      <point x="301" y="-69"/>
      <point x="280" y="-69" type="curve" smooth="yes"/>
      <point x="259" y="-69"/>
      <point x="243" y="-82"/>
      <point x="243" y="-109" type="curve" smooth="yes"/>
      <point x="243" y="-136"/>
      <point x="259" y="-148"/>
    </contour>
  </outline>
</glyph>
<glyph name="hatafqamats-hb" format="2">
  <unicode hex="05B3"/>
  <note>
hatafqamats
</note>
  <anchor x="192" y="0" name="_bottom"/>
  <outline>
    <contour>
      <point x="113" y="-236" type="line"/>
      <point x="162" y="-233" type="line"/>
      <point x="155" y="-135" type="line"/>
      <point x="206" y="-135" type="line"/>
      <point x="209" y="-82" type="line"/>
      <point x="65" y="-82" type="line"/>
      <point x="63" y="-135" type="line"/>
      <point x="117" y="-135" type="line"/>
    </contour>
    <contour>
      <point x="279" y="-252" type="curve" smooth="yes"/>
      <point x="300" y="-252"/>
      <point x="317" y="-240"/>
      <point x="317" y="-212" type="curve" smooth="yes"/>
      <point x="317" y="-186"/>
      <point x="300" y="-174"/>
      <point x="279" y="-174" type="curve" smooth="yes"/>
      <point x="258" y="-174"/>
      <point x="242" y="-186"/>
      <point x="242" y="-212" type="curve"/>
      <point x="242" y="-240"/>
      <point x="258" y="-252"/>
    </contour>
    <contour>
      <point x="279" y="-148" type="curve" smooth="yes"/>
      <point x="300" y="-148"/>
      <point x="317" y="-136"/>
      <point x="317" y="-109" type="curve" smooth="yes"/>
      <point x="317" y="-82"/>
      <point x="300" y="-69"/>
      <point x="279" y="-69" type="curve" smooth="yes"/>
      <point x="258" y="-69"/>
      <point x="242" y="-82"/>
      <point x="242" y="-109" type="curve"/>
      <point x="242" y="-136"/>
      <point x="258" y="-148"/>
    </contour>
  </outline>
</glyph>
<glyph name="tsere-hb" format="2">
  <unicode hex="05B5"/>
  <note>
tsere
</note>
  <anchor x="151" y="0" name="_bottom"/>
  <outline>
    <contour>
      <point x="204" y="-150" type="curve" smooth="yes"/>
      <point x="225" y="-150"/>
      <point x="243" y="-136"/>
      <point x="243" y="-110" type="curve" smooth="yes"/>
      <point x="243" y="-82"/>
      <point x="225" y="-69"/>
      <point x="204" y="-69" type="curve" smooth="yes"/>
      <point x="183" y="-69"/>
      <point x="166" y="-82"/>
      <point x="166" y="-110" type="curve"/>
      <point x="166" y="-136"/>
      <point x="183" y="-150"/>
    </contour>
    <contour>
      <point x="98" y="-150" type="curve" smooth="yes"/>
      <point x="119" y="-150"/>
      <point x="136" y="-137"/>
      <point x="136" y="-110" type="curve" smooth="yes"/>
      <point x="136" y="-83"/>
      <point x="119" y="-70"/>
      <point x="98" y="-70" type="curve" smooth="yes"/>
      <point x="76" y="-70"/>
      <point x="59" y="-83"/>
      <point x="59" y="-110" type="curve"/>
      <point x="59" y="-137"/>
      <point x="76" y="-150"/>
    </contour>
  </outline>
</glyph>
<glyph name="segol-hb" format="2">
  <unicode hex="05B6"/>
  <note>
segol
</note>
  <anchor x="151" y="0" name="_bottom"/>
  <outline>
    <contour>
      <point x="205" y="-148" type="curve" smooth="yes"/>
      <point x="226" y="-148"/>
      <point x="243" y="-136"/>
      <point x="243" y="-109" type="curve" smooth="yes"/>
      <point x="243" y="-82"/>
      <point x="226" y="-69"/>
      <point x="205" y="-69" type="curve" smooth="yes"/>
      <point x="184" y="-69"/>
      <point x="167" y="-82"/>
      <point x="167" y="-109" type="curve"/>
      <point x="167" y="-136"/>
      <point x="184" y="-148"/>
    </contour>
    <contour>
      <point x="151" y="-252" type="curve" smooth="yes"/>
      <point x="172" y="-252"/>
      <point x="189" y="-240"/>
      <point x="189" y="-212" type="curve" smooth="yes"/>
      <point x="189" y="-186"/>
      <point x="172" y="-174"/>
      <point x="151" y="-174" type="curve" smooth="yes"/>
      <point x="130" y="-174"/>
      <point x="114" y="-186"/>
      <point x="114" y="-212" type="curve"/>
      <point x="114" y="-240"/>
      <point x="130" y="-252"/>
    </contour>
    <contour>
      <point x="96" y="-148" type="curve" smooth="yes"/>
      <point x="117" y="-148"/>
      <point x="135" y="-136"/>
      <point x="135" y="-109" type="curve" smooth="yes"/>
      <point x="135" y="-82"/>
      <point x="117" y="-69"/>
      <point x="96" y="-69" type="curve" smooth="yes"/>
      <point x="76" y="-69"/>
      <point x="59" y="-82"/>
      <point x="59" y="-109" type="curve"/>
      <point x="59" y="-136"/>
      <point x="76" y="-148"/>
    </contour>
  </outline>
</glyph>
<glyph name="patah-hb" format="2">
  <unicode hex="05B7"/>
  <note>
patah
</note>
  <anchor x="131" y="0" name="_bottom"/>
  <outline>
    <contour>
      <point x="57" y="-133" type="line"/>
      <point x="202" y="-133" type="line"/>
      <point x="205" y="-80" type="line"/>
      <point x="60" y="-80" type="line"/>
    </contour>
  </outline>
</glyph>
<glyph name="qamats-hb" format="2">
  <unicode hex="05B8"/>
  <note>
qamats
</note>
  <anchor x="131" y="0" name="_bottom"/>
  <outline>
    <contour>
      <point x="106" y="-227" type="line"/>
      <point x="156" y="-227" type="line"/>
      <point x="150" y="-133" type="line"/>
      <point x="202" y="-133" type="line"/>
      <point x="205" y="-80" type="line"/>
      <point x="60" y="-80" type="line"/>
      <point x="57" y="-133" type="line"/>
      <point x="113" y="-133" type="line"/>
    </contour>
  </outline>
</glyph>
<glyph name="holamhaser-hb" format="2">
  <unicode hex="05BA"/>
  <note>
uni05BA
</note>
  <anchor x="92" y="536" name="_topleft"/>
  <outline>
    <contour>
      <point x="91" y="662" type="curve" smooth="yes"/>
      <point x="112" y="662"/>
      <point x="129" y="674"/>
      <point x="129" y="701" type="curve" smooth="yes"/>
      <point x="129" y="728"/>
      <point x="112" y="741"/>
      <point x="91" y="741" type="curve" smooth="yes"/>
      <point x="70" y="741"/>
      <point x="54" y="728"/>
      <point x="54" y="701" type="curve" smooth="yes"/>
      <point x="54" y="674"/>
      <point x="70" y="662"/>
    </contour>
  </outline>
</glyph>
<glyph name="qubuts-hb" format="2">
  <unicode hex="05BB"/>
  <note>
qubuts
</note>
  <anchor x="184" y="0" name="_bottom"/>
  <outline>
    <contour>
      <point x="267" y="-252" type="curve" smooth="yes"/>
      <point x="288" y="-252"/>
      <point x="305" y="-240"/>
      <point x="305" y="-213" type="curve" smooth="yes"/>
      <point x="305" y="-186"/>
      <point x="288" y="-173"/>
      <point x="267" y="-173" type="curve" smooth="yes"/>
      <point x="246" y="-173"/>
      <point x="229" y="-186"/>
      <point x="229" y="-213" type="curve"/>
      <point x="229" y="-240"/>
      <point x="246" y="-252"/>
    </contour>
    <contour>
      <point x="99" y="-148" type="curve" smooth="yes"/>
      <point x="120" y="-148"/>
      <point x="138" y="-136"/>
      <point x="138" y="-109" type="curve" smooth="yes"/>
      <point x="138" y="-82"/>
      <point x="120" y="-69"/>
      <point x="99" y="-69" type="curve" smooth="yes"/>
      <point x="79" y="-69"/>
      <point x="62" y="-82"/>
      <point x="62" y="-109" type="curve"/>
      <point x="62" y="-136"/>
      <point x="79" y="-148"/>
    </contour>
    <contour>
      <point x="183" y="-200" type="curve" smooth="yes"/>
      <point x="204" y="-200"/>
      <point x="221" y="-188"/>
      <point x="221" y="-160" type="curve" smooth="yes"/>
      <point x="221" y="-134"/>
      <point x="204" y="-122"/>
      <point x="183" y="-122" type="curve" smooth="yes"/>
      <point x="162" y="-122"/>
      <point x="146" y="-134"/>
      <point x="146" y="-160" type="curve"/>
      <point x="146" y="-188"/>
      <point x="162" y="-200"/>
    </contour>
  </outline>
</glyph>
<glyph name="dagesh-hb" format="2">
  <unicode hex="05BC"/>
  <note>
dagesh
</note>
  <anchor x="92" y="303" name="_center"/>
  <outline>
    <contour>
      <point x="54" y="303" type="curve"/>
      <point x="54" y="276"/>
      <point x="70" y="263"/>
      <point x="92" y="263" type="curve" smooth="yes"/>
      <point x="113" y="263"/>
      <point x="130" y="276"/>
      <point x="130" y="303" type="curve" smooth="yes"/>
      <point x="130" y="330"/>
      <point x="113" y="343"/>
      <point x="92" y="343" type="curve" smooth="yes"/>
      <point x="70" y="343"/>
      <point x="54" y="330"/>
    </contour>
  </outline>
</glyph>
<glyph name="siluqleft-hb" format="2">
  <unicode hex="05BD"/>
  <note>
meteg
</note>
  <anchor x="77" y="0" name="_bottomleft"/>
  <outline>
    <contour>
      <point x="52" y="-272" type="line"/>
      <point x="101" y="-269" type="line"/>
      <point x="101" y="-70" type="line"/>
      <point x="52" y="-73" type="line"/>
    </contour>
  </outline>
</glyph>
<glyph name="maqaf-hb" format="2">
  <advance width="259"/>
  <unicode hex="05BE"/>
  <outline>
    <contour>
      <point x="21" y="417" type="line"/>
      <point x="238" y="417" type="line"/>
      <point x="238" y="592" type="line"/>
      <point x="21" y="592" type="line"/>
    </contour>
  </outline>
</glyph>
<glyph name="rafe-hb" format="2">
  <unicode hex="05BF"/>
  <note>
rafe
</note>
  <anchor x="142" y="536" name="_top"/>
  <outline>
    <contour>
      <point x="58" y="673" type="line"/>
      <point x="223" y="673" type="line"/>
      <point x="226" y="726" type="line"/>
      <point x="61" y="726" type="line"/>
    </contour>
  </outline>
</glyph>
<glyph name="paseq-hb" format="2">
  <advance width="466"/>
  <unicode hex="05C0"/>
  <note>
paseq
</note>
  <outline>
    <contour>
      <point x="199" y="673" type="line"/>
      <point x="199" y="-81" type="line"/>
      <point x="267" y="-81" type="line"/>
      <point x="267" y="673" type="line"/>
    </contour>
  </outline>
</glyph>
<glyph name="sindot-hb" format="2">
  <unicode hex="05C2"/>
  <note>
sindot
</note>
  <anchor x="92" y="536" name="_top"/>
  <outline>
    <contour>
      <point x="91" y="662" type="curve" smooth="yes"/>
      <point x="112" y="662"/>
      <point x="129" y="674"/>
      <point x="129" y="701" type="curve" smooth="yes"/>
      <point x="129" y="728"/>
      <point x="112" y="741"/>
      <point x="91" y="741" type="curve" smooth="yes"/>
      <point x="70" y="741"/>
      <point x="54" y="728"/>
      <point x="54" y="701" type="curve" smooth="yes"/>
      <point x="54" y="674"/>
      <point x="70" y="662"/>
    </contour>
  </outline>
</glyph>
<glyph name="lowerdot-hb" format="2">
  <unicode hex="05C5"/>
  <note>
lowerdot
</note>
  <anchor x="92" y="0" name="_bottom"/>
  <outline>
    <contour>
      <point x="91" y="-148" type="curve" smooth="yes"/>
      <point x="112" y="-148"/>
      <point x="129" y="-136"/>
      <point x="129" y="-109" type="curve" smooth="yes"/>
      <point x="129" y="-82"/>
      <point x="112" y="-69"/>
      <point x="91" y="-69" type="curve" smooth="yes"/>
      <point x="70" y="-69"/>
      <point x="54" y="-82"/>
      <point x="54" y="-109" type="curve" smooth="yes"/>
      <point x="54" y="-136"/>
      <point x="70" y="-148"/>
    </contour>
  </outline>
</glyph>
<glyph name="nunhafukha-hb" format="2">
  <advance width="307"/>
  <unicode hex="05C6"/>
  <note>
uni05C6
</note>
  <outline>
    <contour>
      <point x="123" y="0" type="curve" smooth="yes"/>
      <point x="297" y="0" type="line"/>
      <point x="255" y="175" type="line"/>
      <point x="92" y="175" type="line" smooth="yes"/>
      <point x="85" y="175"/>
      <point x="80" y="182"/>
      <point x="80" y="195" type="curve" smooth="yes"/>
      <point x="80" y="361" type="line" smooth="yes"/>
      <point x="80" y="406"/>
      <point x="84" y="417"/>
      <point x="106" y="417" type="curve" smooth="yes"/>
      <point x="164" y="417" type="line" smooth="yes"/>
      <point x="216" y="417"/>
      <point x="238" y="448"/>
      <point x="238" y="512" type="curve" smooth="yes"/>
      <point x="238" y="543"/>
      <point x="233" y="578"/>
      <point x="218" y="647" type="curve"/>
      <point x="184" y="647" type="line"/>
      <point x="184" y="625" type="line" smooth="yes"/>
      <point x="184" y="601"/>
      <point x="172" y="592"/>
      <point x="149" y="592" type="curve" smooth="yes"/>
      <point x="118" y="592" type="line" smooth="yes"/>
      <point x="35" y="592"/>
      <point x="26" y="547"/>
      <point x="26" y="464" type="curve" smooth="yes"/>
      <point x="26" y="160" type="line" smooth="yes"/>
      <point x="26" y="51"/>
      <point x="42" y="0"/>
    </contour>
  </outline>
</glyph>
<glyph name="qamatsqatan-hb" format="2">
  <unicode hex="05C7"/>
  <note>
qamatsqatan
</note>
  <anchor x="128" y="0" name="_bottom"/>
  <outline>
    <contour>
      <point x="103" y="-208" type="line"/>
      <point x="153" y="-208" type="line"/>
      <point x="147" y="-137" type="line"/>
      <point x="196" y="-137" type="line"/>
      <point x="199" y="-84" type="line"/>
      <point x="60" y="-84" type="line"/>
      <point x="57" y="-137" type="line"/>
      <point x="110" y="-137" type="line"/>
    </contour>
  </outline>
</glyph>
<glyph name="alef-hb" format="2">
  <advance width="469"/>
  <unicode hex="05D0"/>
  <anchor x="264" y="0" name="bottom"/>
  <anchor x="36" y="0" name="bottomleft"/>
  <anchor x="236" y="109" name="center"/>
  <anchor x="216" y="536" name="top"/>
  <anchor x="-14" y="536" name="topleft"/>
  <outline>
    <contour>
      <point x="402" y="-10" type="curve"/>
      <point x="429" y="-10" type="line"/>
      <point x="447" y="29"/>
      <point x="454" y="56"/>
      <point x="454" y="91" type="curve" smooth="yes"/>
      <point x="454" y="142"/>
      <point x="439" y="180"/>
      <point x="412" y="210" type="curve" smooth="yes"/>
      <point x="109" y="545" type="line" smooth="yes"/>
      <point x="83" y="574"/>
      <point x="73" y="598"/>
      <point x="73" y="624" type="curve" smooth="yes"/>
      <point x="73" y="647" type="line"/>
      <point x="42" y="647" type="line"/>
      <point x="22" y="619"/>
      <point x="15" y="564"/>
      <point x="15" y="533" type="curve" smooth="yes"/>
      <point x="15" y="478"/>
      <point x="38" y="434"/>
      <point x="70" y="397" type="curve" smooth="yes"/>
      <point x="357" y="73" type="line" smooth="yes"/>
      <point x="394" y="32"/>
      <point x="402" y="22"/>
    </contour>
    <contour>
      <point x="10" y="0" type="line"/>
      <point x="150" y="0" type="line"/>
      <point x="171" y="57"/>
      <point x="159" y="114"/>
      <point x="137" y="159" type="curve" smooth="yes"/>
      <point x="113" y="207" type="line" smooth="yes"/>
      <point x="89" y="255"/>
      <point x="87" y="286"/>
      <point x="114" y="329" type="curve" smooth="yes"/>
      <point x="132" y="358" type="line"/>
      <point x="104" y="393" type="line"/>
      <point x="67" y="344" type="line" smooth="yes"/>
      <point x="37" y="304"/>
      <point x="18" y="243"/>
      <point x="27" y="190" type="curve" smooth="yes"/>
      <point x="42" y="100" type="line" smooth="yes"/>
      <point x="45" y="83"/>
      <point x="40" y="73"/>
      <point x="25" y="73" type="curve" smooth="yes"/>
      <point x="10" y="73" type="line"/>
    </contour>
    <contour>
      <point x="365" y="257" type="line"/>
      <point x="365" y="294"/>
      <point x="366" y="334"/>
      <point x="387" y="373" type="curve" smooth="yes"/>
      <point x="422" y="438" type="line"/>
      <point x="386" y="453" type="line"/>
      <point x="353" y="397" type="line" smooth="yes"/>
      <point x="336" y="368"/>
      <point x="317" y="331"/>
      <point x="317" y="308" type="curve"/>
    </contour>
    <contour>
      <point x="448" y="405" type="line"/>
      <point x="456" y="443"/>
      <point x="463" y="463"/>
      <point x="463" y="501" type="curve" smooth="yes"/>
      <point x="463" y="566"/>
      <point x="443" y="582"/>
      <point x="405" y="587" type="curve" smooth="yes"/>
      <point x="374" y="591" type="line" smooth="yes"/>
      <point x="356" y="594"/>
      <point x="347" y="610"/>
      <point x="347" y="630" type="curve" smooth="yes"/>
      <point x="347" y="647" type="line"/>
      <point x="313" y="647" type="line"/>
      <point x="299" y="593"/>
      <point x="294" y="546"/>
      <point x="294" y="513" type="curve" smooth="yes"/>
      <point x="294" y="458"/>
      <point x="308" y="428"/>
      <point x="349" y="421" type="curve" smooth="yes"/>
    </contour>
  </outline>
</glyph>
<glyph name="bet-hb" format="2">
  <advance width="442"/>
  <unicode hex="05D1"/>
  <anchor x="220" y="0" name="bottom"/>
  <anchor x="-7" y="0" name="bottomleft"/>
  <anchor x="192" y="297" name="center"/>
  <anchor x="206" y="536" name="top"/>
  <anchor x="0" y="536" name="topleft"/>
  <outline>
    <contour>
      <point x="8" y="0" type="line"/>
      <point x="432" y="0" type="line"/>
      <point x="432" y="175" type="line"/>
      <point x="387" y="175" type="line"/>
      <point x="389" y="202"/>
      <point x="390" y="252"/>
      <point x="390" y="275" type="curve" smooth="yes"/>
      <point x="390" y="443" type="line" smooth="yes"/>
      <point x="390" y="537"/>
      <point x="353" y="592"/>
      <point x="289" y="592" type="curve" smooth="yes"/>
      <point x="122" y="592" type="line" smooth="yes"/>
      <point x="99" y="592"/>
      <point x="87" y="601"/>
      <point x="87" y="625" type="curve" smooth="yes"/>
      <point x="87" y="647" type="line"/>
      <point x="53" y="647" type="line"/>
      <point x="38" y="578"/>
      <point x="33" y="543"/>
      <point x="33" y="512" type="curve" smooth="yes"/>
      <point x="33" y="448"/>
      <point x="55" y="417"/>
      <point x="107" y="417" type="curve" smooth="yes"/>
      <point x="280" y="417" type="line" smooth="yes"/>
      <point x="322" y="417"/>
      <point x="333" y="403"/>
      <point x="333" y="358" type="curve" smooth="yes"/>
      <point x="333" y="262" type="line" smooth="yes"/>
      <point x="333" y="208"/>
      <point x="332" y="189"/>
      <point x="330" y="175" type="curve"/>
      <point x="50" y="175" type="line"/>
    </contour>
  </outline>
</glyph>
<glyph name="gimel-hb" format="2">
  <advance width="340"/>
  <unicode hex="05D2"/>
  <anchor x="238" y="0" name="bottom"/>
  <anchor x="10" y="0" name="bottomleft"/>
  <anchor x="136" y="297" name="center"/>
  <anchor x="196" y="536" name="top"/>
  <anchor x="24" y="536" name="topleft"/>
  <outline>
    <contour>
      <point x="287" y="-9" type="curve"/>
      <point x="294" y="-9" type="line"/>
      <point x="310" y="7"/>
      <point x="323" y="27"/>
      <point x="332" y="55" type="curve"/>
      <point x="298" y="150" type="line" smooth="yes"/>
      <point x="275" y="214"/>
      <point x="273" y="231"/>
      <point x="273" y="258" type="curve" smooth="yes"/>
      <point x="273" y="514" type="line" smooth="yes"/>
      <point x="273" y="577"/>
      <point x="258" y="592"/>
      <point x="215" y="592" type="curve" smooth="yes"/>
      <point x="161" y="592" type="line" smooth="yes"/>
      <point x="138" y="592"/>
      <point x="126" y="601"/>
      <point x="126" y="625" type="curve" smooth="yes"/>
      <point x="126" y="647" type="line"/>
      <point x="92" y="647" type="line"/>
      <point x="77" y="578"/>
      <point x="72" y="543"/>
      <point x="72" y="512" type="curve" smooth="yes"/>
      <point x="72" y="448"/>
      <point x="94" y="417"/>
      <point x="146" y="417" type="curve" smooth="yes"/>
      <point x="190" y="417" type="line" smooth="yes"/>
      <point x="217" y="417"/>
      <point x="219" y="405"/>
      <point x="219" y="367" type="curve" smooth="yes"/>
      <point x="219" y="205" type="line" smooth="yes"/>
      <point x="219" y="186"/>
      <point x="214" y="175"/>
      <point x="191" y="175" type="curve" smooth="yes"/>
      <point x="52" y="175" type="line"/>
      <point x="10" y="0" type="line"/>
      <point x="175" y="0" type="line" smooth="yes"/>
      <point x="196" y="0"/>
      <point x="208" y="16"/>
      <point x="222" y="63" type="curve" smooth="yes"/>
      <point x="238" y="116" type="line"/>
      <point x="257" y="84"/>
      <point x="274" y="37"/>
    </contour>
  </outline>
</glyph>
<glyph name="dalet-hb" format="2">
  <advance width="406"/>
  <unicode hex="05D3"/>
  <anchor x="316" y="0" name="bottom"/>
  <anchor x="87" y="0" name="bottomleft"/>
  <anchor x="174" y="297" name="center"/>
  <anchor x="220" y="536" name="top"/>
  <anchor x="-4" y="536" name="topleft"/>
  <outline>
    <contour>
      <point x="285" y="-7" type="line"/>
      <point x="303" y="-7" type="line"/>
      <point x="325" y="2"/>
      <point x="334" y="10"/>
      <point x="352" y="29" type="curve"/>
      <point x="342" y="417" type="line"/>
      <point x="392" y="417" type="line"/>
      <point x="392" y="560" type="line" smooth="yes"/>
      <point x="392" y="582"/>
      <point x="382" y="592"/>
      <point x="359" y="592" type="curve" smooth="yes"/>
      <point x="97" y="592" type="line" smooth="yes"/>
      <point x="74" y="592"/>
      <point x="62" y="601"/>
      <point x="62" y="625" type="curve" smooth="yes"/>
      <point x="62" y="647" type="line"/>
      <point x="28" y="647" type="line"/>
      <point x="13" y="578"/>
      <point x="8" y="543"/>
      <point x="8" y="512" type="curve" smooth="yes"/>
      <point x="8" y="448"/>
      <point x="30" y="417"/>
      <point x="82" y="417" type="curve" smooth="yes"/>
      <point x="296" y="417" type="line"/>
      <point x="296" y="415" type="line"/>
      <point x="292" y="391"/>
      <point x="285" y="355"/>
      <point x="285" y="257" type="curve" smooth="yes"/>
    </contour>
  </outline>
</glyph>
<glyph name="he-hb" format="2">
  <advance width="478"/>
  <unicode hex="05D4"/>
  <anchor x="235" y="0" name="bottom"/>
  <anchor x="4" y="0" name="bottomleft"/>
  <anchor x="235" y="297" name="center"/>
  <anchor x="261" y="536" name="top"/>
  <anchor x="-16" y="536" name="topleft"/>
  <outline>
    <contour>
      <point x="367" y="-7" type="line"/>
      <point x="384" y="-7" type="line"/>
      <point x="406" y="2"/>
      <point x="415" y="10"/>
      <point x="433" y="29" type="curve"/>
      <point x="424" y="421" type="line"/>
      <point x="444" y="430" type="line"/>
      <point x="444" y="560" type="line" smooth="yes"/>
      <point x="444" y="582"/>
      <point x="434" y="592"/>
      <point x="411" y="592" type="curve" smooth="yes"/>
      <point x="111" y="592" type="line" smooth="yes"/>
      <point x="88" y="592"/>
      <point x="76" y="601"/>
      <point x="76" y="625" type="curve" smooth="yes"/>
      <point x="76" y="647" type="line"/>
      <point x="42" y="647" type="line"/>
      <point x="27" y="578"/>
      <point x="22" y="543"/>
      <point x="22" y="512" type="curve" smooth="yes"/>
      <point x="22" y="448"/>
      <point x="44" y="417"/>
      <point x="96" y="417" type="curve" smooth="yes"/>
      <point x="378" y="417" type="line"/>
      <point x="378" y="415" type="line"/>
      <point x="373" y="391"/>
      <point x="367" y="355"/>
      <point x="367" y="257" type="curve" smooth="yes"/>
    </contour>
    <contour>
      <point x="36" y="-7" type="line"/>
      <point x="54" y="-7" type="line"/>
      <point x="75" y="3"/>
      <point x="86" y="12"/>
      <point x="103" y="29" type="curve"/>
      <point x="102" y="324" type="line"/>
      <point x="91" y="337" type="line"/>
      <point x="71" y="325" type="line" smooth="yes"/>
      <point x="51" y="313"/>
      <point x="36" y="280"/>
      <point x="36" y="226" type="curve" smooth="yes"/>
    </contour>
  </outline>
</glyph>
<glyph name="vav-hb" format="2">
  <advance width="223"/>
  <unicode hex="05D5"/>
  <anchor x="168" y="0" name="bottom"/>
  <anchor x="-60" y="0" name="bottomleft"/>
  <anchor x="62" y="297" name="center"/>
  <anchor x="122" y="536" name="top"/>
  <anchor x="107" y="536" name="topleft"/>
  <outline>
    <contour>
      <point x="131" y="-7" type="line"/>
      <point x="148" y="-7" type="line"/>
      <point x="163" y="0"/>
      <point x="177" y="9"/>
      <point x="197" y="29" type="curve"/>
      <point x="185" y="514" type="line" smooth="yes"/>
      <point x="184" y="577"/>
      <point x="170" y="592"/>
      <point x="128" y="592" type="curve" smooth="yes"/>
      <point x="95" y="592" type="line" smooth="yes"/>
      <point x="72" y="592"/>
      <point x="60" y="601"/>
      <point x="60" y="625" type="curve" smooth="yes"/>
      <point x="60" y="647" type="line"/>
      <point x="26" y="647" type="line"/>
      <point x="11" y="578"/>
      <point x="6" y="543"/>
      <point x="6" y="512" type="curve" smooth="yes"/>
      <point x="6" y="448"/>
      <point x="28" y="417"/>
      <point x="80" y="417" type="curve" smooth="yes"/>
      <point x="101" y="417" type="line" smooth="yes"/>
      <point x="129" y="417"/>
      <point x="131" y="405"/>
      <point x="131" y="367" type="curve" smooth="yes"/>
    </contour>
  </outline>
</glyph>
<glyph name="zayin-hb" format="2">
  <advance width="213"/>
  <unicode hex="05D6"/>
  <anchor x="145" y="0" name="bottom"/>
  <anchor x="-79" y="0" name="bottomleft"/>
  <anchor x="25" y="297" name="center"/>
  <anchor x="133" y="536" name="top"/>
  <anchor x="-8" y="536" name="topleft"/>
  <outline>
    <contour>
      <point x="101" y="-6" type="curve"/>
      <point x="119" y="-6" type="line"/>
      <point x="139" y="0"/>
      <point x="150" y="10"/>
      <point x="168" y="29" type="curve"/>
      <point x="151" y="92"/>
      <point x="133" y="175"/>
      <point x="133" y="274" type="curve" smooth="yes"/>
      <point x="133" y="314"/>
      <point x="136" y="393"/>
      <point x="148" y="433" type="curve"/>
      <point x="95" y="435" type="line"/>
      <point x="83" y="367"/>
      <point x="78" y="306"/>
      <point x="78" y="251" type="curve" smooth="yes"/>
      <point x="78" y="196"/>
      <point x="83" y="73"/>
    </contour>
    <contour>
      <point x="192" y="405" type="line"/>
      <point x="200" y="442"/>
      <point x="207" y="463"/>
      <point x="207" y="501" type="curve" smooth="yes"/>
      <point x="207" y="563"/>
      <point x="189" y="580"/>
      <point x="149" y="586" type="curve" smooth="yes"/>
      <point x="95" y="594" type="line" smooth="yes"/>
      <point x="78" y="597"/>
      <point x="66" y="607"/>
      <point x="66" y="630" type="curve" smooth="yes"/>
      <point x="66" y="647" type="line"/>
      <point x="33" y="647" type="line"/>
      <point x="19" y="593"/>
      <point x="14" y="546"/>
      <point x="14" y="513" type="curve" smooth="yes"/>
      <point x="14" y="458"/>
      <point x="28" y="430"/>
      <point x="69" y="424" type="curve" smooth="yes"/>
    </contour>
  </outline>
</glyph>
<glyph name="het-hb" format="2">
  <advance width="506"/>
  <unicode hex="05D7"/>
  <anchor x="268" y="0" name="bottom"/>
  <anchor x="38" y="0" name="bottomleft"/>
  <anchor x="268" y="250" name="center"/>
  <anchor x="281" y="536" name="top"/>
  <anchor x="1" y="536" name="topleft"/>
  <outline>
    <contour>
      <point x="395" y="-7" type="line"/>
      <point x="412" y="-7" type="line"/>
      <point x="435" y="2"/>
      <point x="443" y="10"/>
      <point x="461" y="29" type="curve"/>
      <point x="452" y="421" type="line"/>
      <point x="472" y="430" type="line"/>
      <point x="472" y="560" type="line" smooth="yes"/>
      <point x="472" y="582"/>
      <point x="462" y="592"/>
      <point x="439" y="592" type="curve" smooth="yes"/>
      <point x="123" y="592" type="line" smooth="yes"/>
      <point x="100" y="592"/>
      <point x="88" y="601"/>
      <point x="88" y="625" type="curve" smooth="yes"/>
      <point x="88" y="647" type="line"/>
      <point x="54" y="647" type="line"/>
      <point x="39" y="578"/>
      <point x="34" y="543"/>
      <point x="34" y="512" type="curve" smooth="yes"/>
      <point x="34" y="448"/>
      <point x="56" y="417"/>
      <point x="108" y="417" type="curve" smooth="yes"/>
      <point x="406" y="417" type="line"/>
      <point x="406" y="415" type="line"/>
      <point x="401" y="391"/>
      <point x="395" y="355"/>
      <point x="395" y="257" type="curve" smooth="yes"/>
    </contour>
    <contour>
      <point x="74" y="-7" type="line"/>
      <point x="92" y="-7" type="line"/>
      <point x="114" y="2"/>
      <point x="123" y="10"/>
      <point x="141" y="29" type="curve"/>
      <point x="131" y="436" type="line"/>
      <point x="85" y="436" type="line"/>
      <point x="85" y="416" type="line"/>
      <point x="81" y="392"/>
      <point x="74" y="355"/>
      <point x="74" y="257" type="curve" smooth="yes"/>
    </contour>
  </outline>
</glyph>
<glyph name="tet-hb" format="2">
  <advance width="488"/>
  <unicode hex="05D8"/>
  <anchor x="244" y="0" name="bottom"/>
  <anchor x="14" y="0" name="bottomleft"/>
  <anchor x="265" y="297" name="center"/>
  <anchor x="280" y="536" name="top"/>
  <anchor x="0" y="536" name="topleft"/>
  <outline>
    <contour>
      <point x="84" y="0" type="curve"/>
      <point x="319" y="0" type="line" smooth="yes"/>
      <point x="377" y="0"/>
      <point x="385" y="7"/>
      <point x="412" y="74" type="curve" smooth="yes"/>
      <point x="452" y="175"/>
      <point x="470" y="257"/>
      <point x="470" y="366" type="curve" smooth="yes"/>
      <point x="470" y="541"/>
      <point x="423" y="604"/>
      <point x="356" y="604" type="curve" smooth="yes"/>
      <point x="277" y="604"/>
      <point x="228" y="518"/>
      <point x="223" y="355" type="curve"/>
      <point x="252" y="355" type="line"/>
      <point x="258" y="403"/>
      <point x="295" y="436"/>
      <point x="345" y="436" type="curve" smooth="yes"/>
      <point x="390" y="436"/>
      <point x="416" y="407"/>
      <point x="416" y="310" type="curve" smooth="yes"/>
      <point x="416" y="264"/>
      <point x="410" y="232"/>
      <point x="396" y="211" type="curve" smooth="yes"/>
      <point x="379" y="184"/>
      <point x="350" y="175"/>
      <point x="305" y="175" type="curve" smooth="yes"/>
      <point x="122" y="175" type="line"/>
      <point x="116" y="220"/>
      <point x="113" y="247"/>
      <point x="113" y="294" type="curve" smooth="yes"/>
      <point x="113" y="333"/>
      <point x="115" y="395"/>
      <point x="124" y="433" type="curve"/>
      <point x="83" y="436" type="line"/>
      <point x="62" y="354"/>
      <point x="59" y="311"/>
      <point x="59" y="254" type="curve" smooth="yes"/>
      <point x="59" y="151"/>
      <point x="69" y="93"/>
    </contour>
    <contour>
      <point x="168" y="406" type="line"/>
      <point x="176" y="444"/>
      <point x="183" y="463"/>
      <point x="183" y="502" type="curve" smooth="yes"/>
      <point x="183" y="557"/>
      <point x="169" y="579"/>
      <point x="125" y="587" type="curve" smooth="yes"/>
      <point x="94" y="593" type="line" smooth="yes"/>
      <point x="80" y="596"/>
      <point x="66" y="606"/>
      <point x="66" y="630" type="curve" smooth="yes"/>
      <point x="66" y="647" type="line"/>
      <point x="33" y="647" type="line"/>
      <point x="19" y="593"/>
      <point x="14" y="546"/>
      <point x="14" y="513" type="curve" smooth="yes"/>
      <point x="14" y="458"/>
      <point x="28" y="430"/>
      <point x="69" y="423" type="curve" smooth="yes"/>
    </contour>
  </outline>
</glyph>
<glyph name="yod-hb" format="2">
  <advance width="252"/>
  <unicode hex="05D9"/>
  <anchor x="153" y="0" name="bottom"/>
  <anchor x="-75" y="0" name="bottomleft"/>
  <anchor x="88" y="356" name="center"/>
  <anchor x="141" y="536" name="top"/>
  <anchor x="-21" y="536" name="topleft"/>
  <outline>
    <contour>
      <point x="137" y="210" type="line"/>
      <point x="177" y="261" type="line" smooth="yes"/>
      <point x="233" y="333"/>
      <point x="238" y="413"/>
      <point x="238" y="459" type="curve" smooth="yes"/>
      <point x="238" y="554"/>
      <point x="217" y="592"/>
      <point x="171" y="592" type="curve" smooth="yes"/>
      <point x="104" y="592" type="line" smooth="yes"/>
      <point x="81" y="592"/>
      <point x="69" y="601"/>
      <point x="69" y="625" type="curve" smooth="yes"/>
      <point x="69" y="647" type="line"/>
      <point x="35" y="647" type="line"/>
      <point x="20" y="578"/>
      <point x="15" y="543"/>
      <point x="15" y="512" type="curve" smooth="yes"/>
      <point x="15" y="448"/>
      <point x="37" y="417"/>
      <point x="89" y="417" type="curve" smooth="yes"/>
      <point x="123" y="417" type="line" smooth="yes"/>
      <point x="149" y="417"/>
      <point x="162" y="406"/>
      <point x="162" y="378" type="curve" smooth="yes"/>
      <point x="162" y="363"/>
      <point x="161" y="335"/>
      <point x="134" y="302" type="curve" smooth="yes"/>
      <point x="99" y="259" type="line"/>
    </contour>
  </outline>
</glyph>
<glyph name="finalkaf-hb" format="2">
  <advance width="419"/>
  <unicode hex="05DA"/>
  <anchor x="160" y="406" name="bottom"/>
  <anchor x="107" y="0" name="bottomleft"/>
  <anchor x="175" y="297" name="center"/>
  <anchor x="229" y="536" name="top"/>
  <anchor x="-5" y="536" name="topleft"/>
  <outline>
    <contour>
      <point x="311" y="-240" type="line"/>
      <point x="329" y="-240" type="line"/>
      <point x="345" y="-231"/>
      <point x="356" y="-221"/>
      <point x="375" y="-202" type="curve"/>
      <point x="366" y="301" type="line" smooth="yes"/>
      <point x="365" y="387"/>
      <point x="365" y="403"/>
      <point x="385" y="445" type="curve"/>
      <point x="385" y="560" type="line" smooth="yes"/>
      <point x="385" y="582"/>
      <point x="375" y="592"/>
      <point x="353" y="592" type="curve" smooth="yes"/>
      <point x="104" y="592" type="line" smooth="yes"/>
      <point x="81" y="592"/>
      <point x="69" y="601"/>
      <point x="69" y="625" type="curve" smooth="yes"/>
      <point x="69" y="647" type="line"/>
      <point x="35" y="647" type="line"/>
      <point x="20" y="578"/>
      <point x="15" y="543"/>
      <point x="15" y="512" type="curve" smooth="yes"/>
      <point x="15" y="448"/>
      <point x="37" y="417"/>
      <point x="89" y="417" type="curve" smooth="yes"/>
      <point x="324" y="417" type="line"/>
      <point x="324" y="415" type="line"/>
      <point x="313" y="385"/>
      <point x="311" y="342"/>
      <point x="311" y="266" type="curve" smooth="yes"/>
    </contour>
  </outline>
</glyph>
<glyph name="kaf-hb" format="2">
  <advance width="436"/>
  <unicode hex="05DB"/>
  <anchor x="214" y="0" name="bottom"/>
  <anchor x="-12" y="0" name="bottomleft"/>
  <anchor x="203" y="297" name="center"/>
  <anchor x="201" y="536" name="top"/>
  <anchor x="-1" y="536" name="topleft"/>
  <outline>
    <contour>
      <point x="10" y="0" type="line"/>
      <point x="291" y="0" type="line" smooth="yes"/>
      <point x="367" y="0"/>
      <point x="410" y="72"/>
      <point x="410" y="192" type="curve" smooth="yes"/>
      <point x="410" y="423" type="line" smooth="yes"/>
      <point x="410" y="536"/>
      <point x="368" y="592"/>
      <point x="285" y="592" type="curve" smooth="yes"/>
      <point x="118" y="592" type="line" smooth="yes"/>
      <point x="96" y="592"/>
      <point x="84" y="601"/>
      <point x="84" y="625" type="curve" smooth="yes"/>
      <point x="84" y="647" type="line"/>
      <point x="49" y="647" type="line"/>
      <point x="35" y="578"/>
      <point x="29" y="543"/>
      <point x="29" y="511" type="curve" smooth="yes"/>
      <point x="29" y="448"/>
      <point x="53" y="417"/>
      <point x="104" y="417" type="curve" smooth="yes"/>
      <point x="278" y="417" type="line" smooth="yes"/>
      <point x="341" y="417"/>
      <point x="356" y="402"/>
      <point x="356" y="338" type="curve" smooth="yes"/>
      <point x="356" y="250" type="line" smooth="yes"/>
      <point x="356" y="193"/>
      <point x="338" y="175"/>
      <point x="277" y="175" type="curve" smooth="yes"/>
      <point x="52" y="175" type="line"/>
    </contour>
  </outline>
</glyph>
<glyph name="lamed-hb" format="2">
  <advance width="408"/>
  <unicode hex="05DC"/>
  <anchor x="193" y="0" name="bottom"/>
  <anchor x="-32" y="0" name="bottomleft"/>
  <anchor x="183" y="312" name="center"/>
  <anchor x="254" y="536" name="top"/>
  <anchor x="-38" y="536" name="topleft"/>
  <outline>
    <contour>
      <point x="192" y="-7" type="curve" smooth="yes"/>
      <point x="213" y="-7"/>
      <point x="225" y="10"/>
      <point x="225" y="37" type="curve" smooth="yes"/>
      <point x="225" y="85" type="line" smooth="yes"/>
      <point x="225" y="109"/>
      <point x="227" y="125"/>
      <point x="247" y="146" type="curve" smooth="yes"/>
      <point x="363" y="263" type="line" smooth="yes"/>
      <point x="383" y="283"/>
      <point x="390" y="296"/>
      <point x="390" y="337" type="curve" smooth="yes"/>
      <point x="390" y="485" type="line" smooth="yes"/>
      <point x="390" y="554"/>
      <point x="358" y="592"/>
      <point x="307" y="592" type="curve" smooth="yes"/>
      <point x="113" y="592" type="line" smooth="yes"/>
      <point x="102" y="592"/>
      <point x="97" y="597"/>
      <point x="102" y="626" type="curve" smooth="yes"/>
      <point x="123" y="745" type="line" smooth="yes"/>
      <point x="131" y="788"/>
      <point x="121" y="810"/>
      <point x="98" y="814" type="curve" smooth="yes"/>
      <point x="73" y="819" type="line" smooth="yes"/>
      <point x="52" y="823"/>
      <point x="50" y="837"/>
      <point x="50" y="859" type="curve" smooth="yes"/>
      <point x="50" y="868" type="line"/>
      <point x="35" y="868" type="line"/>
      <point x="20" y="841"/>
      <point x="5" y="807"/>
      <point x="5" y="759" type="curve" smooth="yes"/>
      <point x="5" y="728"/>
      <point x="11" y="712"/>
      <point x="28" y="709" type="curve" smooth="yes"/>
      <point x="47" y="706" type="line" smooth="yes"/>
      <point x="52" y="705"/>
      <point x="56" y="702"/>
      <point x="54" y="692" type="curve" smooth="yes"/>
      <point x="52" y="683"/>
      <point x="23" y="532"/>
      <point x="23" y="492" type="curve" smooth="yes"/>
      <point x="23" y="453"/>
      <point x="48" y="417"/>
      <point x="84" y="417" type="curve" smooth="yes"/>
      <point x="309" y="417" type="line" smooth="yes"/>
      <point x="324" y="417"/>
      <point x="333" y="407"/>
      <point x="333" y="392" type="curve" smooth="yes"/>
      <point x="333" y="344" type="line" smooth="yes"/>
      <point x="333" y="324"/>
      <point x="331" y="318"/>
      <point x="317" y="304" type="curve" smooth="yes"/>
      <point x="193" y="174" type="line" smooth="yes"/>
      <point x="167" y="147"/>
      <point x="160" y="125"/>
      <point x="160" y="83" type="curve" smooth="yes"/>
      <point x="160" y="37" type="line" smooth="yes"/>
      <point x="160" y="8"/>
      <point x="172" y="-7"/>
    </contour>
  </outline>
</glyph>
<glyph name="finalmem-hb" format="2">
  <advance width="461"/>
  <unicode hex="05DD"/>
  <anchor x="226" y="0" name="bottom"/>
  <anchor x="-5" y="0" name="bottomleft"/>
  <anchor x="226" y="297" name="center"/>
  <anchor x="215" y="536" name="top"/>
  <anchor x="-16" y="536" name="topleft"/>
  <outline>
    <contour>
      <point x="74" y="0" type="curve" smooth="yes"/>
      <point x="365" y="0" type="line" smooth="yes"/>
      <point x="403" y="0"/>
      <point x="427" y="34"/>
      <point x="427" y="88" type="curve" smooth="yes"/>
      <point x="427" y="443" type="line" smooth="yes"/>
      <point x="427" y="537"/>
      <point x="390" y="592"/>
      <point x="326" y="592" type="curve" smooth="yes"/>
      <point x="107" y="592" type="line" smooth="yes"/>
      <point x="84" y="592"/>
      <point x="72" y="601"/>
      <point x="72" y="625" type="curve" smooth="yes"/>
      <point x="72" y="647" type="line"/>
      <point x="38" y="647" type="line"/>
      <point x="23" y="578"/>
      <point x="18" y="543"/>
      <point x="18" y="512" type="curve" smooth="yes"/>
      <point x="18" y="448"/>
      <point x="40" y="417"/>
      <point x="92" y="417" type="curve" smooth="yes"/>
      <point x="340" y="417" type="line" smooth="yes"/>
      <point x="357" y="417"/>
      <point x="370" y="404"/>
      <point x="370" y="358" type="curve" smooth="yes"/>
      <point x="370" y="211" type="line" smooth="yes"/>
      <point x="370" y="183"/>
      <point x="369" y="175"/>
      <point x="342" y="175" type="curve" smooth="yes"/>
      <point x="84" y="175" type="line"/>
      <point x="84" y="254" type="line" smooth="yes"/>
      <point x="84" y="332"/>
      <point x="99" y="388"/>
      <point x="137" y="417" type="curve"/>
      <point x="137" y="467" type="line"/>
      <point x="81" y="467" type="line"/>
      <point x="81" y="415" type="line"/>
      <point x="56" y="375"/>
      <point x="27" y="329"/>
      <point x="27" y="243" type="curve" smooth="yes"/>
      <point x="27" y="84" type="line" smooth="yes"/>
      <point x="27" y="27"/>
      <point x="44" y="0"/>
    </contour>
  </outline>
</glyph>
<glyph name="mem-hb" format="2">
  <advance width="490"/>
  <unicode hex="05DE"/>
  <anchor x="263" y="0" name="bottom"/>
  <anchor x="35" y="0" name="bottomleft"/>
  <anchor x="263" y="297" name="center"/>
  <anchor x="256" y="536" name="top"/>
  <anchor x="-7" y="536" name="topleft"/>
  <outline>
    <contour>
      <point x="25" y="0" type="line"/>
      <point x="83" y="0" type="line"/>
      <point x="107" y="220" type="line" smooth="yes"/>
      <point x="121" y="348"/>
      <point x="193" y="437"/>
      <point x="287" y="437" type="curve" smooth="yes"/>
      <point x="362" y="437"/>
      <point x="418" y="381"/>
      <point x="418" y="263" type="curve" smooth="yes"/>
      <point x="418" y="241"/>
      <point x="416" y="220"/>
      <point x="408" y="200" type="curve" smooth="yes"/>
      <point x="401" y="183"/>
      <point x="394" y="175"/>
      <point x="385" y="175" type="curve" smooth="yes"/>
      <point x="215" y="175" type="line"/>
      <point x="193" y="0" type="line"/>
      <point x="442" y="0" type="line"/>
      <point x="465" y="119"/>
      <point x="472" y="222"/>
      <point x="472" y="299" type="curve" smooth="yes"/>
      <point x="472" y="526"/>
      <point x="412" y="598"/>
      <point x="263" y="598" type="curve" smooth="yes"/>
      <point x="238" y="598" type="line"/>
      <point x="161" y="495" type="line"/>
      <point x="160" y="496" type="line"/>
      <point x="160" y="517" type="line" smooth="yes"/>
      <point x="160" y="572"/>
      <point x="147" y="592"/>
      <point x="111" y="592" type="curve" smooth="yes"/>
      <point x="99" y="592" type="line" smooth="yes"/>
      <point x="76" y="592"/>
      <point x="64" y="601"/>
      <point x="64" y="625" type="curve" smooth="yes"/>
      <point x="64" y="647" type="line"/>
      <point x="30" y="647" type="line"/>
      <point x="15" y="578"/>
      <point x="10" y="544"/>
      <point x="10" y="513" type="curve" smooth="yes"/>
      <point x="10" y="448"/>
      <point x="31" y="417"/>
      <point x="84" y="417" type="curve" smooth="yes"/>
      <point x="97" y="417" type="line" smooth="yes"/>
      <point x="102" y="417"/>
      <point x="107" y="416"/>
      <point x="107" y="412" type="curve" smooth="yes"/>
      <point x="107" y="410"/>
      <point x="106" y="408"/>
      <point x="103" y="403" type="curve" smooth="yes"/>
      <point x="88" y="378"/>
      <point x="55" y="321"/>
      <point x="46" y="224" type="curve" smooth="yes"/>
    </contour>
  </outline>
</glyph>
<glyph name="finalnun-hb" format="2">
  <advance width="243"/>
  <unicode hex="05DF"/>
  <anchor x="10" y="0" name="bottomleft"/>
  <anchor x="72" y="235" name="center"/>
  <anchor x="134" y="536" name="top"/>
  <anchor x="6" y="536" name="topleft"/>
  <outline>
    <contour>
      <point x="135" y="-240" type="line"/>
      <point x="153" y="-240" type="line"/>
      <point x="170" y="-231"/>
      <point x="180" y="-221"/>
      <point x="199" y="-203" type="curve"/>
      <point x="190" y="301" type="line" smooth="yes"/>
      <point x="189" y="387"/>
      <point x="189" y="403"/>
      <point x="209" y="445" type="curve"/>
      <point x="209" y="560" type="line" smooth="yes"/>
      <point x="209" y="582"/>
      <point x="199" y="592"/>
      <point x="178" y="592" type="curve" smooth="yes"/>
      <point x="104" y="592" type="line" smooth="yes"/>
      <point x="81" y="592"/>
      <point x="69" y="601"/>
      <point x="69" y="625" type="curve" smooth="yes"/>
      <point x="69" y="647" type="line"/>
      <point x="35" y="647" type="line"/>
      <point x="20" y="578"/>
      <point x="15" y="544"/>
      <point x="15" y="513" type="curve" smooth="yes"/>
      <point x="15" y="448"/>
      <point x="36" y="417"/>
      <point x="89" y="417" type="curve" smooth="yes"/>
      <point x="148" y="417" type="line"/>
      <point x="148" y="415" type="line"/>
      <point x="138" y="385"/>
      <point x="135" y="342"/>
      <point x="135" y="266" type="curve" smooth="yes"/>
    </contour>
  </outline>
</glyph>
<glyph name="nun-hb" format="2">
  <advance width="307"/>
  <unicode hex="05E0"/>
  <anchor x="150" y="0" name="bottom"/>
  <anchor x="-73" y="0" name="bottomleft"/>
  <anchor x="140" y="297" name="center"/>
  <anchor x="182" y="536" name="top"/>
  <anchor x="-7" y="536" name="topleft"/>
  <outline>
    <contour>
      <point x="10" y="0" type="line"/>
      <point x="184" y="0" type="line" smooth="yes"/>
      <point x="265" y="0"/>
      <point x="281" y="51"/>
      <point x="281" y="160" type="curve" smooth="yes"/>
      <point x="281" y="464" type="line" smooth="yes"/>
      <point x="281" y="547"/>
      <point x="272" y="592"/>
      <point x="189" y="592" type="curve" smooth="yes"/>
      <point x="158" y="592" type="line" smooth="yes"/>
      <point x="135" y="592"/>
      <point x="123" y="601"/>
      <point x="123" y="625" type="curve" smooth="yes"/>
      <point x="123" y="647" type="line"/>
      <point x="89" y="647" type="line"/>
      <point x="74" y="578"/>
      <point x="69" y="543"/>
      <point x="69" y="512" type="curve" smooth="yes"/>
      <point x="69" y="448"/>
      <point x="91" y="417"/>
      <point x="143" y="417" type="curve" smooth="yes"/>
      <point x="201" y="417" type="line" smooth="yes"/>
      <point x="223" y="417"/>
      <point x="227" y="406"/>
      <point x="227" y="361" type="curve" smooth="yes"/>
      <point x="227" y="195" type="line" smooth="yes"/>
      <point x="227" y="182"/>
      <point x="222" y="175"/>
      <point x="215" y="175" type="curve" smooth="yes"/>
      <point x="52" y="175" type="line"/>
    </contour>
  </outline>
</glyph>
<glyph name="samekh-hb" format="2">
  <advance width="457"/>
  <unicode hex="05E1"/>
  <anchor x="230" y="0" name="bottom"/>
  <anchor x="3" y="0" name="bottomleft"/>
  <anchor x="240" y="297" name="center"/>
  <anchor x="227" y="536" name="top"/>
  <anchor x="-1" y="536" name="topleft"/>
  <outline>
    <contour>
      <point x="231" y="-9" type="curve" smooth="yes"/>
      <point x="415" y="-9"/>
      <point x="439" y="192"/>
      <point x="439" y="338" type="curve" smooth="yes"/>
      <point x="439" y="389"/>
      <point x="436" y="437"/>
      <point x="425" y="483" type="curve" smooth="yes"/>
      <point x="401" y="584"/>
      <point x="365" y="592"/>
      <point x="305" y="592" type="curve" smooth="yes"/>
      <point x="107" y="592" type="line" smooth="yes"/>
      <point x="84" y="592"/>
      <point x="72" y="601"/>
      <point x="72" y="625" type="curve" smooth="yes"/>
      <point x="72" y="647" type="line"/>
      <point x="38" y="647" type="line"/>
      <point x="23" y="578"/>
      <point x="18" y="544"/>
      <point x="18" y="513" type="curve" smooth="yes"/>
      <point x="18" y="448"/>
      <point x="39" y="417"/>
      <point x="92" y="417" type="curve"/>
      <point x="286" y="417" type="line" smooth="yes"/>
      <point x="358" y="417"/>
      <point x="382" y="402"/>
      <point x="382" y="319" type="curve" smooth="yes"/>
      <point x="382" y="204"/>
      <point x="336" y="155"/>
      <point x="235" y="155" type="curve" smooth="yes"/>
      <point x="142" y="155"/>
      <point x="97" y="197"/>
      <point x="97" y="288" type="curve" smooth="yes"/>
      <point x="97" y="318"/>
      <point x="102" y="386"/>
      <point x="122" y="417" type="curve"/>
      <point x="122" y="453" type="line"/>
      <point x="68" y="453" type="line"/>
      <point x="68" y="416" type="line"/>
      <point x="61" y="391"/>
      <point x="40" y="327"/>
      <point x="40" y="239" type="curve" smooth="yes"/>
      <point x="40" y="85"/>
      <point x="105" y="-9"/>
    </contour>
  </outline>
</glyph>
<glyph name="ayin-hb" format="2">
  <advance width="450"/>
  <unicode hex="05E2"/>
  <anchor x="206" y="0" name="bottom"/>
  <anchor x="-23" y="0" name="bottomleft"/>
  <anchor x="236" y="337" name="center"/>
  <anchor x="229" y="536" name="top"/>
  <anchor x="-14" y="536" name="topleft"/>
  <outline>
    <contour>
      <point x="18" y="-85" type="line"/>
      <point x="32" y="-85" type="line"/>
      <point x="172" y="16" type="line" smooth="yes"/>
      <point x="324" y="126"/>
      <point x="416" y="254"/>
      <point x="430" y="428" type="curve" smooth="yes"/>
      <point x="435" y="490" type="line" smooth="yes"/>
      <point x="440" y="550"/>
      <point x="421" y="579"/>
      <point x="379" y="587" type="curve" smooth="yes"/>
      <point x="348" y="593" type="line" smooth="yes"/>
      <point x="333" y="596"/>
      <point x="321" y="607"/>
      <point x="321" y="630" type="curve" smooth="yes"/>
      <point x="321" y="647" type="line"/>
      <point x="287" y="647" type="line"/>
      <point x="273" y="593"/>
      <point x="268" y="546"/>
      <point x="268" y="513" type="curve" smooth="yes"/>
      <point x="268" y="457"/>
      <point x="282" y="431"/>
      <point x="323" y="422" type="curve" smooth="yes"/>
      <point x="360" y="414" type="line"/>
      <point x="358" y="397" type="line" smooth="yes"/>
      <point x="348" y="312"/>
      <point x="304" y="276"/>
      <point x="186" y="201" type="curve" smooth="yes"/>
      <point x="18" y="94" type="line"/>
    </contour>
    <contour>
      <point x="146" y="119" type="line"/>
      <point x="219" y="155" type="line"/>
      <point x="147" y="305" type="line" smooth="yes"/>
      <point x="130" y="341"/>
      <point x="123" y="388"/>
      <point x="129" y="435" type="curve"/>
      <point x="85" y="436" type="line"/>
      <point x="75" y="391"/>
      <point x="84" y="292"/>
      <point x="104" y="236" type="curve" smooth="yes"/>
    </contour>
    <contour>
      <point x="171" y="406" type="line"/>
      <point x="179" y="444"/>
      <point x="186" y="463"/>
      <point x="186" y="502" type="curve" smooth="yes"/>
      <point x="186" y="557"/>
      <point x="172" y="579"/>
      <point x="128" y="587" type="curve" smooth="yes"/>
      <point x="97" y="593" type="line" smooth="yes"/>
      <point x="83" y="596"/>
      <point x="69" y="606"/>
      <point x="69" y="630" type="curve" smooth="yes"/>
      <point x="69" y="647" type="line"/>
      <point x="36" y="647" type="line"/>
      <point x="22" y="593"/>
      <point x="17" y="546"/>
      <point x="17" y="513" type="curve" smooth="yes"/>
      <point x="17" y="458"/>
      <point x="31" y="430"/>
      <point x="72" y="423" type="curve" smooth="yes"/>
    </contour>
  </outline>
</glyph>
<glyph name="finalpe-hb" format="2">
  <advance width="442"/>
  <unicode hex="05E3"/>
  <anchor x="90" y="0" name="bottomleft"/>
  <anchor x="274" y="270" name="center"/>
  <anchor x="202" y="536" name="top"/>
  <anchor x="-6" y="536" name="topleft"/>
  <outline>
    <contour>
      <point x="353" y="-240" type="line"/>
      <point x="370" y="-240" type="line"/>
      <point x="387" y="-233"/>
      <point x="396" y="-223"/>
      <point x="416" y="-203" type="curve"/>
      <point x="408" y="423" type="line" smooth="yes"/>
      <point x="406" y="539"/>
      <point x="365" y="592"/>
      <point x="281" y="592" type="curve" smooth="yes"/>
      <point x="99" y="592" type="line" smooth="yes"/>
      <point x="76" y="592"/>
      <point x="64" y="601"/>
      <point x="64" y="625" type="curve" smooth="yes"/>
      <point x="64" y="647" type="line"/>
      <point x="30" y="647" type="line"/>
      <point x="15" y="578"/>
      <point x="10" y="544"/>
      <point x="10" y="513" type="curve" smooth="yes"/>
      <point x="10" y="448"/>
      <point x="31" y="417"/>
      <point x="84" y="417" type="curve" smooth="yes"/>
      <point x="275" y="417" type="line" smooth="yes"/>
      <point x="337" y="417"/>
      <point x="353" y="402"/>
      <point x="353" y="338" type="curve" smooth="yes"/>
    </contour>
    <contour>
      <point x="172" y="205" type="curve"/>
      <point x="177" y="217"/>
      <point x="194" y="235"/>
      <point x="194" y="265" type="curve" smooth="yes"/>
      <point x="194" y="307"/>
      <point x="172" y="328"/>
      <point x="142" y="328" type="curve" smooth="yes"/>
      <point x="130" y="328"/>
      <point x="108" y="319"/>
      <point x="94" y="307" type="curve"/>
      <point x="94" y="313" type="line" smooth="yes"/>
      <point x="94" y="337"/>
      <point x="108" y="389"/>
      <point x="121" y="417" type="curve"/>
      <point x="121" y="435" type="line"/>
      <point x="76" y="435" type="line"/>
      <point x="76" y="415" type="line"/>
      <point x="62" y="377"/>
      <point x="32" y="305"/>
      <point x="32" y="222" type="curve" smooth="yes"/>
      <point x="32" y="214" type="line"/>
      <point x="56" y="214" type="line"/>
      <point x="73" y="228"/>
      <point x="92" y="237"/>
      <point x="113" y="237" type="curve" smooth="yes"/>
      <point x="137" y="237"/>
      <point x="158" y="225"/>
    </contour>
  </outline>
</glyph>
<glyph name="pe-hb" format="2">
  <advance width="456"/>
  <unicode hex="05E4"/>
  <anchor x="215" y="0" name="bottom"/>
  <anchor x="-12" y="0" name="bottomleft"/>
  <anchor x="297" y="297" name="center"/>
  <anchor x="208" y="536" name="top"/>
  <anchor x="0" y="536" name="topleft"/>
  <outline>
    <contour>
      <point x="14" y="0" type="line"/>
      <point x="311" y="0" type="line" smooth="yes"/>
      <point x="387" y="0"/>
      <point x="430" y="72"/>
      <point x="430" y="192" type="curve" smooth="yes"/>
      <point x="430" y="423" type="line" smooth="yes"/>
      <point x="430" y="536"/>
      <point x="388" y="592"/>
      <point x="305" y="592" type="curve" smooth="yes"/>
      <point x="122" y="592" type="line" smooth="yes"/>
      <point x="100" y="592"/>
      <point x="88" y="601"/>
      <point x="88" y="625" type="curve" smooth="yes"/>
      <point x="88" y="647" type="line"/>
      <point x="53" y="647" type="line"/>
      <point x="39" y="578"/>
      <point x="33" y="544"/>
      <point x="33" y="511" type="curve" smooth="yes"/>
      <point x="33" y="448"/>
      <point x="55" y="417"/>
      <point x="108" y="417" type="curve" smooth="yes"/>
      <point x="298" y="417" type="line" smooth="yes"/>
      <point x="361" y="417"/>
      <point x="376" y="402"/>
      <point x="376" y="338" type="curve" smooth="yes"/>
      <point x="376" y="250" type="line" smooth="yes"/>
      <point x="376" y="193"/>
      <point x="358" y="175"/>
      <point x="297" y="175" type="curve" smooth="yes"/>
      <point x="56" y="175" type="line"/>
    </contour>
    <contour>
      <point x="197" y="238" type="curve"/>
      <point x="201" y="249"/>
      <point x="218" y="268"/>
      <point x="218" y="298" type="curve" smooth="yes"/>
      <point x="218" y="339"/>
      <point x="197" y="361"/>
      <point x="166" y="361" type="curve" smooth="yes"/>
      <point x="153" y="361"/>
      <point x="132" y="351"/>
      <point x="119" y="340" type="curve"/>
      <point x="119" y="343" type="line" smooth="yes"/>
      <point x="119" y="367"/>
      <point x="132" y="401"/>
      <point x="145" y="417" type="curve"/>
      <point x="145" y="435" type="line"/>
      <point x="100" y="435" type="line"/>
      <point x="100" y="415" type="line"/>
      <point x="86" y="377"/>
      <point x="56" y="338"/>
      <point x="56" y="254" type="curve" smooth="yes"/>
      <point x="56" y="247" type="line"/>
      <point x="80" y="247" type="line"/>
      <point x="98" y="262"/>
      <point x="118" y="270"/>
      <point x="137" y="270" type="curve" smooth="yes"/>
      <point x="161" y="270"/>
      <point x="182" y="257"/>
    </contour>
  </outline>
</glyph>
<glyph name="finaltsadi-hb" format="2">
  <advance width="421"/>
  <unicode hex="05E5"/>
  <anchor x="-24" y="0" name="bottomleft"/>
  <anchor x="172" y="356" name="center"/>
  <anchor x="211" y="536" name="top"/>
  <anchor x="-6" y="536" name="topleft"/>
  <outline>
    <contour>
      <point x="73" y="-240" type="line"/>
      <point x="91" y="-240" type="line"/>
      <point x="107" y="-231"/>
      <point x="118" y="-221"/>
      <point x="137" y="-202" type="curve"/>
      <point x="133" y="-15" type="line" smooth="yes"/>
      <point x="130" y="138"/>
      <point x="243" y="294"/>
      <point x="329" y="389" type="curve" smooth="yes"/>
      <point x="387" y="453" type="line"/>
      <point x="344" y="467" type="line"/>
      <point x="286" y="408" type="line" smooth="yes"/>
      <point x="249" y="370"/>
      <point x="161" y="286"/>
      <point x="129" y="203" type="curve"/>
      <point x="128" y="293" type="line" smooth="yes"/>
      <point x="127" y="380"/>
      <point x="130" y="399"/>
      <point x="137" y="440" type="curve"/>
      <point x="84" y="440" type="line"/>
      <point x="84" y="418" type="line"/>
      <point x="75" y="389"/>
      <point x="73" y="341"/>
      <point x="73" y="266" type="curve" smooth="yes"/>
    </contour>
    <contour>
      <point x="171" y="409" type="line"/>
      <point x="179" y="446"/>
      <point x="186" y="470"/>
      <point x="186" y="507" type="curve" smooth="yes"/>
      <point x="186" y="563"/>
      <point x="170" y="586"/>
      <point x="127" y="590" type="curve" smooth="yes"/>
      <point x="95" y="593" type="line" smooth="yes"/>
      <point x="77" y="595"/>
      <point x="66" y="607"/>
      <point x="66" y="630" type="curve" smooth="yes"/>
      <point x="66" y="647" type="line"/>
      <point x="33" y="647" type="line"/>
      <point x="19" y="593"/>
      <point x="14" y="546"/>
      <point x="14" y="513" type="curve" smooth="yes"/>
      <point x="14" y="458"/>
      <point x="28" y="429"/>
      <point x="69" y="423" type="curve" smooth="yes"/>
    </contour>
    <contour>
      <point x="398" y="409" type="line"/>
      <point x="406" y="446"/>
      <point x="413" y="470"/>
      <point x="413" y="507" type="curve" smooth="yes"/>
      <point x="413" y="563"/>
      <point x="397" y="586"/>
      <point x="354" y="590" type="curve" smooth="yes"/>
      <point x="322" y="593" type="line" smooth="yes"/>
      <point x="304" y="595"/>
      <point x="293" y="607"/>
      <point x="293" y="630" type="curve" smooth="yes"/>
      <point x="293" y="647" type="line"/>
      <point x="260" y="647" type="line"/>
      <point x="246" y="593"/>
      <point x="241" y="546"/>
      <point x="241" y="513" type="curve" smooth="yes"/>
      <point x="241" y="458"/>
      <point x="255" y="429"/>
      <point x="296" y="423" type="curve" smooth="yes"/>
    </contour>
  </outline>
</glyph>
<glyph name="tsadi-hb" format="2">
  <advance width="454"/>
  <unicode hex="05E6"/>
  <anchor x="210" y="0" name="bottom"/>
  <anchor x="-19" y="0" name="bottomleft"/>
  <anchor x="95" y="264" name="center"/>
  <anchor x="235" y="536" name="top"/>
  <anchor x="5" y="536" name="topleft"/>
  <outline>
    <contour>
      <point x="15" y="0" type="line"/>
      <point x="369" y="0" type="line"/>
      <point x="385" y="39"/>
      <point x="408" y="106"/>
      <point x="408" y="148" type="curve" smooth="yes"/>
      <point x="408" y="163"/>
      <point x="405" y="222"/>
      <point x="360" y="253" type="curve" smooth="yes"/>
      <point x="238" y="339" type="line" smooth="yes"/>
      <point x="195" y="370"/>
      <point x="193" y="387"/>
      <point x="193" y="422" type="curve" smooth="yes"/>
      <point x="193" y="536" type="line" smooth="yes"/>
      <point x="193" y="575"/>
      <point x="179" y="592"/>
      <point x="141" y="592" type="curve" smooth="yes"/>
      <point x="123" y="592" type="line" smooth="yes"/>
      <point x="101" y="592"/>
      <point x="89" y="601"/>
      <point x="89" y="625" type="curve" smooth="yes"/>
      <point x="89" y="647" type="line"/>
      <point x="55" y="647" type="line"/>
      <point x="40" y="578"/>
      <point x="35" y="544"/>
      <point x="35" y="513" type="curve" smooth="yes"/>
      <point x="35" y="448"/>
      <point x="56" y="417"/>
      <point x="109" y="417" type="curve" smooth="yes"/>
      <point x="133" y="417" type="line" smooth="yes"/>
      <point x="138" y="417"/>
      <point x="140" y="414"/>
      <point x="140" y="401" type="curve" smooth="yes"/>
      <point x="140" y="367" type="line" smooth="yes"/>
      <point x="140" y="303"/>
      <point x="148" y="287"/>
      <point x="170" y="269" type="curve" smooth="yes"/>
      <point x="261" y="198" type="line" smooth="yes"/>
      <point x="265" y="195"/>
      <point x="267" y="190"/>
      <point x="267" y="186" type="curve" smooth="yes"/>
      <point x="267" y="183"/>
      <point x="266" y="179"/>
      <point x="264" y="177" type="curve" smooth="yes"/>
      <point x="263" y="176"/>
      <point x="260" y="175"/>
      <point x="257" y="175" type="curve" smooth="yes"/>
      <point x="44" y="175" type="line"/>
    </contour>
    <contour>
      <point x="343" y="262" type="line"/>
      <point x="343" y="303"/>
      <point x="342" y="329"/>
      <point x="361" y="366" type="curve" smooth="yes"/>
      <point x="395" y="432" type="line"/>
      <point x="357" y="445" type="line"/>
      <point x="324" y="389" type="line" smooth="yes"/>
      <point x="306" y="358"/>
      <point x="293" y="328"/>
      <point x="294" y="297" type="curve"/>
    </contour>
    <contour>
      <point x="424" y="405" type="line"/>
      <point x="432" y="442"/>
      <point x="439" y="465"/>
      <point x="439" y="502" type="curve" smooth="yes"/>
      <point x="439" y="559"/>
      <point x="422" y="582"/>
      <point x="380" y="587" type="curve" smooth="yes"/>
      <point x="350" y="591" type="line" smooth="yes"/>
      <point x="331" y="594"/>
      <point x="322" y="610"/>
      <point x="322" y="630" type="curve" smooth="yes"/>
      <point x="322" y="647" type="line"/>
      <point x="289" y="647" type="line"/>
      <point x="275" y="593"/>
      <point x="270" y="546"/>
      <point x="270" y="512" type="curve" smooth="yes"/>
      <point x="270" y="458"/>
      <point x="283" y="428"/>
      <point x="324" y="421" type="curve" smooth="yes"/>
    </contour>
  </outline>
</glyph>
<glyph name="qof-hb" format="2">
  <advance width="444"/>
  <unicode hex="05E7"/>
  <anchor x="257" y="0" name="bottom"/>
  <anchor x="-56" y="0" name="bottomleft"/>
  <anchor x="233" y="297" name="center"/>
  <anchor x="233" y="536" name="top"/>
  <anchor x="0" y="536" name="topleft"/>
  <outline>
    <contour>
      <point x="226" y="-7" type="curve" smooth="yes"/>
      <point x="247" y="-7"/>
      <point x="260" y="11"/>
      <point x="260" y="37" type="curve" smooth="yes"/>
      <point x="260" y="85" type="line" smooth="yes"/>
      <point x="260" y="117"/>
      <point x="262" y="131"/>
      <point x="283" y="144" type="curve" smooth="yes"/>
      <point x="398" y="216" type="line" smooth="yes"/>
      <point x="421" y="230"/>
      <point x="426" y="253"/>
      <point x="426" y="290" type="curve" smooth="yes"/>
      <point x="426" y="485" type="line" smooth="yes"/>
      <point x="426" y="554"/>
      <point x="394" y="592"/>
      <point x="343" y="592" type="curve" smooth="yes"/>
      <point x="123" y="592" type="line" smooth="yes"/>
      <point x="100" y="592"/>
      <point x="88" y="601"/>
      <point x="88" y="625" type="curve" smooth="yes"/>
      <point x="88" y="647" type="line"/>
      <point x="54" y="647" type="line"/>
      <point x="39" y="578"/>
      <point x="34" y="544"/>
      <point x="34" y="513" type="curve" smooth="yes"/>
      <point x="34" y="448"/>
      <point x="55" y="417"/>
      <point x="108" y="417" type="curve" smooth="yes"/>
      <point x="345" y="417" type="line" smooth="yes"/>
      <point x="360" y="417"/>
      <point x="369" y="407"/>
      <point x="369" y="392" type="curve" smooth="yes"/>
      <point x="369" y="297" type="line" smooth="yes"/>
      <point x="369" y="275"/>
      <point x="366" y="267"/>
      <point x="352" y="258" type="curve" smooth="yes"/>
      <point x="229" y="179" type="line" smooth="yes"/>
      <point x="201" y="160"/>
      <point x="195" y="125"/>
      <point x="195" y="84" type="curve" smooth="yes"/>
      <point x="195" y="37" type="line" smooth="yes"/>
      <point x="195" y="7"/>
      <point x="207" y="-7"/>
    </contour>
    <contour>
      <point x="43" y="-240" type="line"/>
      <point x="60" y="-240" type="line"/>
      <point x="79" y="-231"/>
      <point x="90" y="-222"/>
      <point x="106" y="-197" type="curve"/>
      <point x="97" y="326" type="line"/>
      <point x="86" y="339" type="line"/>
      <point x="69" y="328" type="line" smooth="yes"/>
      <point x="52" y="317"/>
      <point x="43" y="285"/>
      <point x="43" y="228" type="curve" smooth="yes"/>
    </contour>
  </outline>
</glyph>
<glyph name="resh-hb" format="2">
  <advance width="408"/>
  <unicode hex="05E8"/>
  <anchor x="356" y="0" name="bottom"/>
  <anchor x="132" y="0" name="bottomleft"/>
  <anchor x="182" y="297" name="center"/>
  <anchor x="176" y="536" name="top"/>
  <anchor x="-2" y="536" name="topleft"/>
  <outline>
    <contour>
      <point x="316" y="-7" type="line"/>
      <point x="333" y="-7" type="line"/>
      <point x="356" y="0"/>
      <point x="364" y="10"/>
      <point x="382" y="30" type="curve"/>
      <point x="369" y="421" type="line" smooth="yes"/>
      <point x="365" y="536"/>
      <point x="327" y="592"/>
      <point x="244" y="592" type="curve" smooth="yes"/>
      <point x="101" y="592" type="line" smooth="yes"/>
      <point x="78" y="592"/>
      <point x="66" y="601"/>
      <point x="66" y="625" type="curve" smooth="yes"/>
      <point x="66" y="647" type="line"/>
      <point x="32" y="647" type="line"/>
      <point x="17" y="578"/>
      <point x="12" y="544"/>
      <point x="12" y="513" type="curve" smooth="yes"/>
      <point x="12" y="448"/>
      <point x="33" y="417"/>
      <point x="86" y="417" type="curve" smooth="yes"/>
      <point x="263" y="417" type="line" smooth="yes"/>
      <point x="307" y="417"/>
      <point x="316" y="399"/>
      <point x="316" y="346" type="curve" smooth="yes"/>
    </contour>
  </outline>
</glyph>
<glyph name="shin-hb" format="2">
  <advance width="602"/>
  <unicode hex="05E9"/>
  <anchor x="287" y="0" name="bottom"/>
  <anchor x="62" y="0" name="bottomleft"/>
  <anchor x="404" y="312" name="center"/>
  <anchor x="119" y="536" name="top"/>
  <anchor x="-3" y="536" name="topleft"/>
  <anchor x="512" y="536" name="topright"/>
  <outline>
    <contour>
      <point x="87" y="0" type="curve"/>
      <point x="373" y="0" type="line" smooth="yes"/>
      <point x="455" y="0"/>
      <point x="546" y="197"/>
      <point x="570" y="383" type="curve" smooth="yes"/>
      <point x="587" y="516" type="line" smooth="yes"/>
      <point x="591" y="549"/>
      <point x="586" y="584"/>
      <point x="546" y="588" type="curve" smooth="yes"/>
      <point x="498" y="593" type="line" smooth="yes"/>
      <point x="479" y="595"/>
      <point x="469" y="607"/>
      <point x="469" y="630" type="curve" smooth="yes"/>
      <point x="469" y="647" type="line"/>
      <point x="436" y="647" type="line"/>
      <point x="422" y="593"/>
      <point x="417" y="546"/>
      <point x="417" y="512" type="curve" smooth="yes"/>
      <point x="417" y="458"/>
      <point x="430" y="431"/>
      <point x="471" y="424" type="curve" smooth="yes"/>
      <point x="514" y="417" type="line"/>
      <point x="510" y="389" type="line" smooth="yes"/>
      <point x="492" y="265"/>
      <point x="443" y="175"/>
      <point x="373" y="175" type="curve" smooth="yes"/>
      <point x="305" y="175" type="line"/>
      <point x="336" y="414" type="line"/>
      <point x="376" y="409" type="line"/>
      <point x="384" y="446"/>
      <point x="391" y="470"/>
      <point x="391" y="506" type="curve" smooth="yes"/>
      <point x="391" y="563"/>
      <point x="374" y="586"/>
      <point x="331" y="590" type="curve" smooth="yes"/>
      <point x="300" y="593" type="line" smooth="yes"/>
      <point x="281" y="595"/>
      <point x="271" y="607"/>
      <point x="271" y="630" type="curve" smooth="yes"/>
      <point x="271" y="647" type="line"/>
      <point x="238" y="647" type="line"/>
      <point x="224" y="593"/>
      <point x="218" y="546"/>
      <point x="218" y="511" type="curve" smooth="yes"/>
      <point x="218" y="468"/>
      <point x="227" y="429"/>
      <point x="273" y="423" type="curve"/>
      <point x="276" y="423" type="line"/>
      <point x="245" y="175" type="line"/>
      <point x="124" y="175" type="line"/>
      <point x="119" y="209"/>
      <point x="115" y="250"/>
      <point x="115" y="282" type="curve" smooth="yes"/>
      <point x="115" y="329"/>
      <point x="124" y="378"/>
      <point x="130" y="415" type="curve"/>
      <point x="171" y="409" type="line"/>
      <point x="179" y="446"/>
      <point x="186" y="470"/>
      <point x="186" y="507" type="curve" smooth="yes"/>
      <point x="186" y="563"/>
      <point x="170" y="586"/>
      <point x="127" y="590" type="curve" smooth="yes"/>
      <point x="95" y="593" type="line" smooth="yes"/>
      <point x="77" y="595"/>
      <point x="66" y="607"/>
      <point x="66" y="630" type="curve" smooth="yes"/>
      <point x="66" y="647" type="line"/>
      <point x="33" y="647" type="line"/>
      <point x="19" y="593"/>
      <point x="14" y="546"/>
      <point x="14" y="513" type="curve" smooth="yes"/>
      <point x="14" y="458"/>
      <point x="28" y="429"/>
      <point x="69" y="423" type="curve" smooth="yes"/>
      <point x="75" y="422" type="line"/>
      <point x="63" y="375"/>
      <point x="55" y="317"/>
      <point x="55" y="271" type="curve" smooth="yes"/>
      <point x="55" y="210"/>
      <point x="69" y="81"/>
    </contour>
  </outline>
</glyph>
<glyph name="tav-hb" format="2">
  <advance width="490"/>
  <unicode hex="05EA"/>
  <anchor x="284" y="0" name="bottom"/>
  <anchor x="59" y="0" name="bottomleft"/>
  <anchor x="284" y="297" name="center"/>
  <anchor x="232" y="536" name="top"/>
  <anchor x="1" y="536" name="topleft"/>
  <outline>
    <contour>
      <point x="397" y="-7" type="line"/>
      <point x="415" y="-7" type="line"/>
      <point x="437" y="0"/>
      <point x="446" y="10"/>
      <point x="464" y="30" type="curve"/>
      <point x="451" y="421" type="line" smooth="yes"/>
      <point x="447" y="534"/>
      <point x="409" y="592"/>
      <point x="326" y="592" type="curve" smooth="yes"/>
      <point x="136" y="592" type="line" smooth="yes"/>
      <point x="114" y="592"/>
      <point x="102" y="601"/>
      <point x="102" y="625" type="curve" smooth="yes"/>
      <point x="102" y="647" type="line"/>
      <point x="68" y="647" type="line"/>
      <point x="53" y="578"/>
      <point x="48" y="544"/>
      <point x="48" y="513" type="curve" smooth="yes"/>
      <point x="48" y="448"/>
      <point x="69" y="417"/>
      <point x="122" y="417" type="curve" smooth="yes"/>
      <point x="344" y="417" type="line" smooth="yes"/>
      <point x="389" y="417"/>
      <point x="397" y="399"/>
      <point x="397" y="346" type="curve" smooth="yes"/>
    </contour>
    <contour>
      <point x="8" y="0" type="line"/>
      <point x="163" y="0" type="line"/>
      <point x="167" y="24"/>
      <point x="171" y="66"/>
      <point x="171" y="91" type="curve" smooth="yes"/>
      <point x="171" y="149"/>
      <point x="149" y="217"/>
      <point x="149" y="282" type="curve" smooth="yes"/>
      <point x="149" y="336"/>
      <point x="164" y="387"/>
      <point x="169" y="417" type="curve"/>
      <point x="169" y="442" type="line"/>
      <point x="123" y="442" type="line"/>
      <point x="123" y="415" type="line"/>
      <point x="113" y="365"/>
      <point x="92" y="297"/>
      <point x="97" y="238" type="curve" smooth="yes"/>
      <point x="101" y="192" type="line" smooth="yes"/>
      <point x="102" y="179"/>
      <point x="99" y="175"/>
      <point x="91" y="175" type="curve" smooth="yes"/>
      <point x="21" y="175" type="line"/>
    </contour>
  </outline>
</glyph>
<glyph name="vavvav-hb" format="2">
  <advance width="446"/>
  <unicode hex="05F0"/>
  <note>
vavvav
</note>
  <anchor x="230" y="0" name="bottom"/>
  <anchor x="-22" y="0" name="bottomleft"/>
  <anchor x="223" y="0" name="caret_2"/>
  <anchor x="102" y="297" name="center"/>
  <anchor x="155" y="536" name="top"/>
  <anchor x="0" y="536" name="topleft"/>
  <outline>
    <contour>
      <point x="354" y="-7" type="line"/>
      <point x="371" y="-7" type="line"/>
      <point x="386" y="0"/>
      <point x="400" y="9"/>
      <point x="420" y="29" type="curve"/>
      <point x="408" y="514" type="line" smooth="yes"/>
      <point x="407" y="577"/>
      <point x="393" y="592"/>
      <point x="351" y="592" type="curve" smooth="yes"/>
      <point x="318" y="592" type="line" smooth="yes"/>
      <point x="295" y="592"/>
      <point x="283" y="601"/>
      <point x="283" y="625" type="curve" smooth="yes"/>
      <point x="283" y="647" type="line"/>
      <point x="249" y="647" type="line"/>
      <point x="234" y="578"/>
      <point x="229" y="543"/>
      <point x="229" y="512" type="curve" smooth="yes"/>
      <point x="229" y="448"/>
      <point x="251" y="417"/>
      <point x="303" y="417" type="curve" smooth="yes"/>
      <point x="324" y="417" type="line" smooth="yes"/>
      <point x="352" y="417"/>
      <point x="354" y="405"/>
      <point x="354" y="367" type="curve" smooth="yes"/>
    </contour>
    <contour>
      <point x="131" y="-7" type="line"/>
      <point x="148" y="-7" type="line"/>
      <point x="163" y="0"/>
      <point x="177" y="9"/>
      <point x="197" y="29" type="curve"/>
      <point x="185" y="514" type="line" smooth="yes"/>
      <point x="184" y="577"/>
      <point x="170" y="592"/>
      <point x="128" y="592" type="curve" smooth="yes"/>
      <point x="95" y="592" type="line" smooth="yes"/>
      <point x="72" y="592"/>
      <point x="60" y="601"/>
      <point x="60" y="625" type="curve" smooth="yes"/>
      <point x="60" y="647" type="line"/>
      <point x="26" y="647" type="line"/>
      <point x="11" y="578"/>
      <point x="6" y="543"/>
      <point x="6" y="512" type="curve" smooth="yes"/>
      <point x="6" y="448"/>
      <point x="28" y="417"/>
      <point x="80" y="417" type="curve" smooth="yes"/>
      <point x="101" y="417" type="line" smooth="yes"/>
      <point x="129" y="417"/>
      <point x="131" y="405"/>
      <point x="131" y="367" type="curve" smooth="yes"/>
    </contour>
  </outline>
</glyph>
<glyph name="geresh-hb" format="2">
  <advance width="241"/>
  <unicode hex="05F3"/>
  <outline>
    <contour>
      <point x="47" y="348" type="line"/>
      <point x="155" y="384"/>
      <point x="196" y="448"/>
      <point x="196" y="531" type="curve" smooth="yes"/>
      <point x="196" y="602"/>
      <point x="166" y="647"/>
      <point x="110" y="647" type="curve" smooth="yes"/>
      <point x="73" y="647"/>
      <point x="46" y="622"/>
      <point x="46" y="576" type="curve" smooth="yes"/>
      <point x="46" y="503"/>
      <point x="107" y="507"/>
      <point x="107" y="470" type="curve" smooth="yes"/>
      <point x="107" y="434"/>
      <point x="86" y="423"/>
      <point x="47" y="404" type="curve"/>
    </contour>
  </outline>
</glyph>
<glyph name="gershayim-hb" format="2">
  <advance width="422"/>
  <unicode hex="05F4"/>
  <outline>
    <contour>
      <point x="47" y="348" type="line"/>
      <point x="155" y="384"/>
      <point x="196" y="448"/>
      <point x="196" y="531" type="curve" smooth="yes"/>
      <point x="196" y="602"/>
      <point x="166" y="647"/>
      <point x="110" y="647" type="curve" smooth="yes"/>
      <point x="73" y="647"/>
      <point x="46" y="622"/>
      <point x="46" y="576" type="curve" smooth="yes"/>
      <point x="46" y="503"/>
      <point x="107" y="507"/>
      <point x="107" y="470" type="curve" smooth="yes"/>
      <point x="107" y="434"/>
      <point x="86" y="423"/>
      <point x="47" y="404" type="curve"/>
    </contour>
    <contour>
      <point x="228" y="348" type="line"/>
      <point x="336" y="384"/>
      <point x="377" y="448"/>
      <point x="377" y="531" type="curve" smooth="yes"/>
      <point x="377" y="602"/>
      <point x="347" y="647"/>
      <point x="291" y="647" type="curve" smooth="yes"/>
      <point x="254" y="647"/>
      <point x="227" y="622"/>
      <point x="227" y="576" type="curve" smooth="yes"/>
      <point x="227" y="503"/>
      <point x="288" y="507"/>
      <point x="288" y="470" type="curve" smooth="yes"/>
      <point x="288" y="434"/>
      <point x="267" y="423"/>
      <point x="228" y="404" type="curve"/>
    </contour>
  </outline>
</glyph>
<glyph name="uni200C" format="2">
  <unicode hex="200C"/>
  <note>
uni200C
</note>
  <outline>
    <contour>
      <point x="18" y="679" type="line"/>
      <point x="-18" y="679" type="line"/>
      <point x="-18" y="-45" type="line"/>
      <point x="18" y="-45" type="line"/>
    </contour>
  </outline>
</glyph>
<glyph name="sheqel" format="2">
  <advance width="586"/>
  <unicode hex="20AA"/>
  <note>
sheqel
</note>
  <outline>
    <contour>
      <point x="237" y="0" type="curve"/>
      <point x="371" y="0" type="line" smooth="yes"/>
      <point x="469" y="0"/>
      <point x="525" y="150"/>
      <point x="543" y="280" type="curve" smooth="yes"/>
      <point x="573" y="520" type="line" smooth="yes"/>
      <point x="577" y="556"/>
      <point x="580" y="585"/>
      <point x="517" y="591" type="curve" smooth="yes"/>
      <point x="506" y="592" type="line" smooth="yes"/>
      <point x="484" y="594"/>
      <point x="474" y="607"/>
      <point x="474" y="630" type="curve" smooth="yes"/>
      <point x="474" y="647" type="line"/>
      <point x="441" y="647" type="line"/>
      <point x="427" y="593"/>
      <point x="422" y="546"/>
      <point x="422" y="513" type="curve" smooth="yes"/>
      <point x="422" y="458"/>
      <point x="436" y="431"/>
      <point x="477" y="423" type="curve" smooth="yes"/>
      <point x="513" y="416" type="line"/>
      <point x="507" y="379" type="line" smooth="yes"/>
      <point x="488" y="263"/>
      <point x="447" y="175"/>
      <point x="372" y="175" type="curve" smooth="yes"/>
      <point x="267" y="175" type="line"/>
      <point x="257" y="255"/>
      <point x="254" y="311"/>
      <point x="259" y="367" type="curve"/>
      <point x="217" y="367" type="line"/>
      <point x="211" y="332"/>
      <point x="203" y="301"/>
      <point x="203" y="253" type="curve" smooth="yes"/>
      <point x="203" y="188"/>
      <point x="218" y="81"/>
    </contour>
    <contour>
      <point x="77" y="-7" type="line"/>
      <point x="95" y="-7" type="line"/>
      <point x="117" y="2"/>
      <point x="126" y="10"/>
      <point x="144" y="29" type="curve"/>
      <point x="135" y="417" type="line"/>
      <point x="334" y="417" type="line"/>
      <point x="334" y="415" type="line"/>
      <point x="330" y="391"/>
      <point x="323" y="350"/>
      <point x="323" y="273" type="curve" smooth="yes"/>
      <point x="323" y="225" type="line"/>
      <point x="341" y="225" type="line"/>
      <point x="364" y="234"/>
      <point x="372" y="242"/>
      <point x="390" y="262" type="curve"/>
      <point x="381" y="421" type="line"/>
      <point x="401" y="430" type="line"/>
      <point x="401" y="560" type="line" smooth="yes"/>
      <point x="401" y="582"/>
      <point x="390" y="592"/>
      <point x="368" y="592" type="curve" smooth="yes"/>
      <point x="126" y="592" type="line" smooth="yes"/>
      <point x="103" y="592"/>
      <point x="91" y="601"/>
      <point x="91" y="625" type="curve" smooth="yes"/>
      <point x="91" y="647" type="line"/>
      <point x="57" y="647" type="line"/>
      <point x="42" y="578"/>
      <point x="37" y="543"/>
      <point x="37" y="513" type="curve" smooth="yes"/>
      <point x="37" y="453"/>
      <point x="57" y="418"/>
      <point x="87" y="418" type="curve"/>
      <point x="88" y="418" type="line"/>
      <point x="88" y="416" type="line"/>
      <point x="84" y="392"/>
      <point x="77" y="355"/>
      <point x="77" y="257" type="curve" smooth="yes"/>
    </contour>
  </outline>
</glyph>
<glyph name="judeospanishvarika-hb" format="2">
  <unicode hex="FB1E"/>
  <note>
uniFB1E
</note>
  <anchor x="155" y="536" name="_top"/>
  <outline>
    <contour>
      <point x="251" y="780" type="curve"/>
      <point x="205" y="777" type="line"/>
      <point x="205" y="741"/>
      <point x="187" y="721"/>
      <point x="155" y="721" type="curve" smooth="yes"/>
      <point x="123" y="721"/>
      <point x="105" y="748"/>
      <point x="105" y="780" type="curve"/>
      <point x="60" y="777" type="line"/>
      <point x="60" y="712"/>
      <point x="95" y="668"/>
      <point x="155" y="668" type="curve" smooth="yes"/>
      <point x="216" y="668"/>
      <point x="251" y="715"/>
    </contour>
  </outline>
</glyph>
<glyph name="ayinaltone-hb" format="2">
  <advance width="453"/>
  <unicode hex="FB20"/>
  <note>
alternativeayin
</note>
  <anchor x="193" y="0" name="bottom"/>
  <anchor x="-27" y="0" name="bottomleft"/>
  <anchor x="237" y="536" name="top"/>
  <anchor x="2" y="536" name="topleft"/>
  <outline>
    <contour>
      <point x="12" y="0" type="line"/>
      <point x="223" y="0" type="line" smooth="yes"/>
      <point x="330" y="0"/>
      <point x="392" y="161"/>
      <point x="418" y="354" type="curve" smooth="yes"/>
      <point x="437" y="495" type="line" smooth="yes"/>
      <point x="445" y="553"/>
      <point x="430" y="581"/>
      <point x="390" y="587" type="curve" smooth="yes"/>
      <point x="348" y="594" type="line" smooth="yes"/>
      <point x="332" y="596"/>
      <point x="321" y="607"/>
      <point x="321" y="630" type="curve" smooth="yes"/>
      <point x="321" y="647" type="line"/>
      <point x="287" y="647" type="line"/>
      <point x="273" y="593"/>
      <point x="268" y="546"/>
      <point x="268" y="513" type="curve" smooth="yes"/>
      <point x="268" y="458"/>
      <point x="282" y="430"/>
      <point x="323" y="422" type="curve" smooth="yes"/>
      <point x="372" y="413" type="line"/>
      <point x="360" y="343" type="line" smooth="yes"/>
      <point x="332" y="180"/>
      <point x="302" y="175"/>
      <point x="223" y="175" type="curve" smooth="yes"/>
      <point x="25" y="175" type="line"/>
    </contour>
    <contour>
      <point x="167" y="108" type="line"/>
      <point x="239" y="143" type="line"/>
      <point x="161" y="305" type="line" smooth="yes"/>
      <point x="142" y="345"/>
      <point x="137" y="384"/>
      <point x="143" y="435" type="curve"/>
      <point x="99" y="436" type="line"/>
      <point x="83" y="389"/>
      <point x="95" y="296"/>
      <point x="118" y="236" type="curve" smooth="yes"/>
    </contour>
    <contour>
      <point x="185" y="406" type="line"/>
      <point x="193" y="444"/>
      <point x="200" y="463"/>
      <point x="200" y="502" type="curve" smooth="yes"/>
      <point x="200" y="557"/>
      <point x="186" y="579"/>
      <point x="142" y="587" type="curve" smooth="yes"/>
      <point x="111" y="593" type="line" smooth="yes"/>
      <point x="97" y="596"/>
      <point x="83" y="606"/>
      <point x="83" y="630" type="curve" smooth="yes"/>
      <point x="83" y="647" type="line"/>
      <point x="50" y="647" type="line"/>
      <point x="36" y="593"/>
      <point x="31" y="546"/>
      <point x="31" y="512" type="curve" smooth="yes"/>
      <point x="31" y="458"/>
      <point x="44" y="430"/>
      <point x="85" y="423" type="curve" smooth="yes"/>
    </contour>
  </outline>
</glyph>
<glyph name="widealef-hb" format="2">
  <advance width="689"/>
  <unicode hex="FB21"/>
  <note>
alefwide
</note>
  <outline>
    <contour>
      <point x="622" y="-10" type="curve"/>
      <point x="649" y="-10" type="line"/>
      <point x="671" y="37"/>
      <point x="679" y="59"/>
      <point x="679" y="95" type="curve" smooth="yes"/>
      <point x="679" y="140"/>
      <point x="666" y="188"/>
      <point x="632" y="210" type="curve" smooth="yes"/>
      <point x="109" y="545" type="line" smooth="yes"/>
      <point x="76" y="566"/>
      <point x="73" y="598"/>
      <point x="73" y="624" type="curve" smooth="yes"/>
      <point x="73" y="647" type="line"/>
      <point x="42" y="647" type="line"/>
      <point x="22" y="619"/>
      <point x="11" y="566"/>
      <point x="11" y="528" type="curve" smooth="yes"/>
      <point x="11" y="480"/>
      <point x="29" y="423"/>
      <point x="70" y="397" type="curve" smooth="yes"/>
      <point x="577" y="73" type="line" smooth="yes"/>
      <point x="623" y="43"/>
      <point x="622" y="22"/>
    </contour>
    <contour>
      <point x="10" y="0" type="line"/>
      <point x="150" y="0" type="line"/>
      <point x="172" y="59"/>
      <point x="157" y="119"/>
      <point x="137" y="159" type="curve" smooth="yes"/>
      <point x="113" y="207" type="line" smooth="yes"/>
      <point x="89" y="254"/>
      <point x="87" y="286"/>
      <point x="114" y="329" type="curve" smooth="yes"/>
      <point x="132" y="358" type="line"/>
      <point x="104" y="393" type="line"/>
      <point x="67" y="344" type="line" smooth="yes"/>
      <point x="37" y="304"/>
      <point x="18" y="243"/>
      <point x="27" y="190" type="curve" smooth="yes"/>
      <point x="42" y="100" type="line" smooth="yes"/>
      <point x="45" y="83"/>
      <point x="40" y="73"/>
      <point x="25" y="73" type="curve" smooth="yes"/>
      <point x="10" y="73" type="line"/>
    </contour>
    <contour>
      <point x="568" y="247" type="line"/>
      <point x="568" y="284"/>
      <point x="569" y="311"/>
      <point x="590" y="350" type="curve" smooth="yes"/>
      <point x="625" y="415" type="line"/>
      <point x="589" y="430" type="line"/>
      <point x="556" y="374" type="line" smooth="yes"/>
      <point x="539" y="345"/>
      <point x="520" y="302"/>
      <point x="520" y="279" type="curve"/>
    </contour>
    <contour>
      <point x="668" y="405" type="line"/>
      <point x="676" y="443"/>
      <point x="683" y="463"/>
      <point x="683" y="501" type="curve" smooth="yes"/>
      <point x="683" y="566"/>
      <point x="663" y="582"/>
      <point x="625" y="587" type="curve" smooth="yes"/>
      <point x="594" y="591" type="line" smooth="yes"/>
      <point x="576" y="593"/>
      <point x="567" y="610"/>
      <point x="567" y="630" type="curve" smooth="yes"/>
      <point x="567" y="647" type="line"/>
      <point x="533" y="647" type="line"/>
      <point x="519" y="593"/>
      <point x="514" y="546"/>
      <point x="514" y="513" type="curve" smooth="yes"/>
      <point x="514" y="458"/>
      <point x="528" y="428"/>
      <point x="569" y="421" type="curve" smooth="yes"/>
    </contour>
  </outline>
</glyph>
<glyph name="widedalet-hb" format="2">
  <advance width="626"/>
  <unicode hex="FB22"/>
  <note>
daletwide
</note>
  <outline>
    <contour>
      <point x="505" y="-7" type="line"/>
      <point x="523" y="-7" type="line"/>
      <point x="545" y="2"/>
      <point x="554" y="10"/>
      <point x="572" y="29" type="curve"/>
      <point x="562" y="417" type="line"/>
      <point x="612" y="417" type="line"/>
      <point x="612" y="560" type="line" smooth="yes"/>
      <point x="612" y="582"/>
      <point x="602" y="592"/>
      <point x="579" y="592" type="curve" smooth="yes"/>
      <point x="97" y="592" type="line" smooth="yes"/>
      <point x="74" y="592"/>
      <point x="62" y="601"/>
      <point x="62" y="625" type="curve" smooth="yes"/>
      <point x="62" y="647" type="line"/>
      <point x="28" y="647" type="line"/>
      <point x="13" y="578"/>
      <point x="8" y="543"/>
      <point x="8" y="512" type="curve" smooth="yes"/>
      <point x="8" y="448"/>
      <point x="30" y="417"/>
      <point x="82" y="417" type="curve" smooth="yes"/>
      <point x="516" y="417" type="line"/>
      <point x="516" y="415" type="line"/>
      <point x="512" y="391"/>
      <point x="505" y="355"/>
      <point x="505" y="257" type="curve" smooth="yes"/>
    </contour>
  </outline>
</glyph>
<glyph name="widehe-hb" format="2">
  <advance width="698"/>
  <unicode hex="FB23"/>
  <note>
hewide
</note>
  <outline>
    <contour>
      <point x="587" y="-7" type="line"/>
      <point x="604" y="-7" type="line"/>
      <point x="626" y="2"/>
      <point x="635" y="10"/>
      <point x="653" y="29" type="curve"/>
      <point x="644" y="421" type="line"/>
      <point x="664" y="430" type="line"/>
      <point x="664" y="560" type="line" smooth="yes"/>
      <point x="664" y="582"/>
      <point x="654" y="592"/>
      <point x="631" y="592" type="curve" smooth="yes"/>
      <point x="111" y="592" type="line" smooth="yes"/>
      <point x="88" y="592"/>
      <point x="76" y="601"/>
      <point x="76" y="625" type="curve" smooth="yes"/>
      <point x="76" y="647" type="line"/>
      <point x="42" y="647" type="line"/>
      <point x="27" y="578"/>
      <point x="22" y="543"/>
      <point x="22" y="512" type="curve" smooth="yes"/>
      <point x="22" y="448"/>
      <point x="44" y="417"/>
      <point x="96" y="417" type="curve" smooth="yes"/>
      <point x="598" y="417" type="line"/>
      <point x="598" y="415" type="line"/>
      <point x="593" y="391"/>
      <point x="587" y="355"/>
      <point x="587" y="257" type="curve" smooth="yes"/>
    </contour>
    <contour>
      <point x="36" y="-7" type="line"/>
      <point x="54" y="-7" type="line"/>
      <point x="75" y="3"/>
      <point x="86" y="12"/>
      <point x="103" y="29" type="curve"/>
      <point x="102" y="324" type="line"/>
      <point x="91" y="337" type="line"/>
      <point x="71" y="325" type="line" smooth="yes"/>
      <point x="51" y="313"/>
      <point x="36" y="280"/>
      <point x="36" y="226" type="curve" smooth="yes"/>
    </contour>
  </outline>
</glyph>
<glyph name="widekaf-hb" format="2">
  <advance width="656"/>
  <unicode hex="FB24"/>
  <note>
kafwide
</note>
  <outline>
    <contour>
      <point x="10" y="0" type="line"/>
      <point x="511" y="0" type="line" smooth="yes"/>
      <point x="587" y="0"/>
      <point x="630" y="72"/>
      <point x="630" y="192" type="curve" smooth="yes"/>
      <point x="630" y="423" type="line" smooth="yes"/>
      <point x="630" y="536"/>
      <point x="588" y="592"/>
      <point x="505" y="592" type="curve" smooth="yes"/>
      <point x="118" y="592" type="line" smooth="yes"/>
      <point x="96" y="592"/>
      <point x="84" y="601"/>
      <point x="84" y="625" type="curve" smooth="yes"/>
      <point x="84" y="647" type="line"/>
      <point x="49" y="647" type="line"/>
      <point x="35" y="578"/>
      <point x="29" y="543"/>
      <point x="29" y="511" type="curve" smooth="yes"/>
      <point x="29" y="448"/>
      <point x="53" y="417"/>
      <point x="104" y="417" type="curve" smooth="yes"/>
      <point x="498" y="417" type="line" smooth="yes"/>
      <point x="561" y="417"/>
      <point x="576" y="402"/>
      <point x="576" y="338" type="curve" smooth="yes"/>
      <point x="576" y="250" type="line" smooth="yes"/>
      <point x="576" y="193"/>
      <point x="558" y="175"/>
      <point x="497" y="175" type="curve" smooth="yes"/>
      <point x="52" y="175" type="line"/>
    </contour>
  </outline>
</glyph>
<glyph name="widelamed-hb" format="2">
  <advance width="628"/>
  <unicode hex="FB25"/>
  <note>
lamedwide
</note>
  <outline>
    <contour>
      <point x="412" y="-7" type="curve" smooth="yes"/>
      <point x="433" y="-7"/>
      <point x="445" y="10"/>
      <point x="445" y="37" type="curve" smooth="yes"/>
      <point x="445" y="85" type="line" smooth="yes"/>
      <point x="445" y="109"/>
      <point x="447" y="125"/>
      <point x="467" y="146" type="curve" smooth="yes"/>
      <point x="583" y="263" type="line" smooth="yes"/>
      <point x="603" y="283"/>
      <point x="610" y="296"/>
      <point x="610" y="337" type="curve" smooth="yes"/>
      <point x="610" y="485" type="line" smooth="yes"/>
      <point x="610" y="554"/>
      <point x="578" y="592"/>
      <point x="527" y="592" type="curve" smooth="yes"/>
      <point x="113" y="592" type="line" smooth="yes"/>
      <point x="102" y="592"/>
      <point x="97" y="597"/>
      <point x="102" y="626" type="curve" smooth="yes"/>
      <point x="123" y="745" type="line" smooth="yes"/>
      <point x="131" y="788"/>
      <point x="121" y="810"/>
      <point x="98" y="814" type="curve" smooth="yes"/>
      <point x="73" y="819" type="line" smooth="yes"/>
      <point x="52" y="823"/>
      <point x="50" y="837"/>
      <point x="50" y="859" type="curve" smooth="yes"/>
      <point x="50" y="868" type="line"/>
      <point x="35" y="868" type="line"/>
      <point x="20" y="841"/>
      <point x="5" y="807"/>
      <point x="5" y="759" type="curve" smooth="yes"/>
      <point x="5" y="728"/>
      <point x="11" y="712"/>
      <point x="28" y="709" type="curve" smooth="yes"/>
      <point x="47" y="706" type="line" smooth="yes"/>
      <point x="52" y="705"/>
      <point x="56" y="702"/>
      <point x="54" y="692" type="curve" smooth="yes"/>
      <point x="52" y="683"/>
      <point x="23" y="532"/>
      <point x="23" y="492" type="curve" smooth="yes"/>
      <point x="23" y="453"/>
      <point x="48" y="417"/>
      <point x="84" y="417" type="curve" smooth="yes"/>
      <point x="529" y="417" type="line" smooth="yes"/>
      <point x="544" y="417"/>
      <point x="553" y="407"/>
      <point x="553" y="392" type="curve" smooth="yes"/>
      <point x="553" y="344" type="line" smooth="yes"/>
      <point x="553" y="324"/>
      <point x="551" y="318"/>
      <point x="537" y="304" type="curve" smooth="yes"/>
      <point x="413" y="174" type="line" smooth="yes"/>
      <point x="387" y="147"/>
      <point x="380" y="125"/>
      <point x="380" y="83" type="curve" smooth="yes"/>
      <point x="380" y="37" type="line" smooth="yes"/>
      <point x="380" y="8"/>
      <point x="392" y="-7"/>
    </contour>
  </outline>
</glyph>
<glyph name="finalwidemem-hb" format="2">
  <advance width="681"/>
  <unicode hex="FB26"/>
  <note>
finalmemwide
</note>
  <outline>
    <contour>
      <point x="74" y="0" type="curve" smooth="yes"/>
      <point x="585" y="0" type="line" smooth="yes"/>
      <point x="623" y="0"/>
      <point x="647" y="34"/>
      <point x="647" y="88" type="curve" smooth="yes"/>
      <point x="647" y="443" type="line" smooth="yes"/>
      <point x="647" y="537"/>
      <point x="610" y="592"/>
      <point x="546" y="592" type="curve" smooth="yes"/>
      <point x="107" y="592" type="line" smooth="yes"/>
      <point x="84" y="592"/>
      <point x="72" y="601"/>
      <point x="72" y="625" type="curve" smooth="yes"/>
      <point x="72" y="647" type="line"/>
      <point x="38" y="647" type="line"/>
      <point x="23" y="578"/>
      <point x="18" y="543"/>
      <point x="18" y="512" type="curve" smooth="yes"/>
      <point x="18" y="448"/>
      <point x="40" y="417"/>
      <point x="92" y="417" type="curve" smooth="yes"/>
      <point x="560" y="417" type="line" smooth="yes"/>
      <point x="577" y="417"/>
      <point x="590" y="404"/>
      <point x="590" y="358" type="curve" smooth="yes"/>
      <point x="590" y="211" type="line" smooth="yes"/>
      <point x="590" y="183"/>
      <point x="589" y="175"/>
      <point x="562" y="175" type="curve" smooth="yes"/>
      <point x="84" y="175" type="line"/>
      <point x="84" y="254" type="line" smooth="yes"/>
      <point x="84" y="332"/>
      <point x="99" y="388"/>
      <point x="137" y="417" type="curve"/>
      <point x="137" y="467" type="line"/>
      <point x="81" y="467" type="line"/>
      <point x="81" y="415" type="line"/>
      <point x="56" y="375"/>
      <point x="27" y="329"/>
      <point x="27" y="243" type="curve" smooth="yes"/>
      <point x="27" y="84" type="line" smooth="yes"/>
      <point x="27" y="27"/>
      <point x="44" y="0"/>
    </contour>
  </outline>
</glyph>
<glyph name="wideresh-hb" format="2">
  <advance width="628"/>
  <unicode hex="FB27"/>
  <note>
reshwide
</note>
  <outline>
    <contour>
      <point x="536" y="-7" type="line"/>
      <point x="553" y="-7" type="line"/>
      <point x="576" y="0"/>
      <point x="584" y="10"/>
      <point x="602" y="30" type="curve"/>
      <point x="589" y="421" type="line" smooth="yes"/>
      <point x="585" y="536"/>
      <point x="547" y="592"/>
      <point x="464" y="592" type="curve" smooth="yes"/>
      <point x="101" y="592" type="line" smooth="yes"/>
      <point x="78" y="592"/>
      <point x="66" y="601"/>
      <point x="66" y="625" type="curve" smooth="yes"/>
      <point x="66" y="647" type="line"/>
      <point x="32" y="647" type="line"/>
      <point x="17" y="578"/>
      <point x="12" y="544"/>
      <point x="12" y="513" type="curve" smooth="yes"/>
      <point x="12" y="448"/>
      <point x="33" y="417"/>
      <point x="86" y="417" type="curve" smooth="yes"/>
      <point x="483" y="417" type="line" smooth="yes"/>
      <point x="527" y="417"/>
      <point x="536" y="399"/>
      <point x="536" y="346" type="curve" smooth="yes"/>
    </contour>
  </outline>
</glyph>
<glyph name="widetav-hb" format="2">
  <advance width="710"/>
  <unicode hex="FB28"/>
  <note>
tavwide
</note>
  <outline>
    <contour>
      <point x="617" y="-7" type="line"/>
      <point x="635" y="-7" type="line"/>
      <point x="657" y="0"/>
      <point x="666" y="10"/>
      <point x="684" y="30" type="curve"/>
      <point x="671" y="421" type="line" smooth="yes"/>
      <point x="667" y="534"/>
      <point x="629" y="592"/>
      <point x="546" y="592" type="curve" smooth="yes"/>
      <point x="136" y="592" type="line" smooth="yes"/>
      <point x="114" y="592"/>
      <point x="102" y="601"/>
      <point x="102" y="625" type="curve" smooth="yes"/>
      <point x="102" y="647" type="line"/>
      <point x="68" y="647" type="line"/>
      <point x="53" y="578"/>
      <point x="48" y="544"/>
      <point x="48" y="513" type="curve" smooth="yes"/>
      <point x="48" y="448"/>
      <point x="69" y="417"/>
      <point x="122" y="417" type="curve" smooth="yes"/>
      <point x="564" y="417" type="line" smooth="yes"/>
      <point x="609" y="417"/>
      <point x="617" y="399"/>
      <point x="617" y="346" type="curve" smooth="yes"/>
    </contour>
    <contour>
      <point x="8" y="0" type="line"/>
      <point x="163" y="0" type="line"/>
      <point x="167" y="24"/>
      <point x="171" y="66"/>
      <point x="171" y="91" type="curve" smooth="yes"/>
      <point x="171" y="149"/>
      <point x="149" y="217"/>
      <point x="149" y="282" type="curve" smooth="yes"/>
      <point x="149" y="336"/>
      <point x="164" y="387"/>
      <point x="169" y="417" type="curve"/>
      <point x="169" y="442" type="line"/>
      <point x="123" y="442" type="line"/>
      <point x="123" y="415" type="line"/>
      <point x="113" y="365"/>
      <point x="92" y="297"/>
      <point x="97" y="238" type="curve" smooth="yes"/>
      <point x="101" y="192" type="line" smooth="yes"/>
      <point x="102" y="179"/>
      <point x="99" y="175"/>
      <point x="91" y="175" type="curve" smooth="yes"/>
      <point x="21" y="175" type="line"/>
    </contour>
  </outline>
</glyph>
<glyph name="aleflamed-hb" format="2">
  <advance width="481"/>
  <unicode hex="FB4F"/>
  <note>
aleflamed
</note>
  <anchor x="196" y="0" name="caret_1"/>
  <outline>
    <contour>
      <point x="413" y="-10" type="curve"/>
      <point x="440" y="-10" type="line"/>
      <point x="458" y="29"/>
      <point x="465" y="55"/>
      <point x="465" y="91" type="curve" smooth="yes"/>
      <point x="465" y="135"/>
      <point x="455" y="175"/>
      <point x="423" y="210" type="curve" smooth="yes"/>
      <point x="120" y="546" type="line" smooth="yes"/>
      <point x="93" y="576"/>
      <point x="97" y="596"/>
      <point x="101" y="626" type="curve" smooth="yes"/>
      <point x="118" y="750" type="line" smooth="yes"/>
      <point x="124" y="791"/>
      <point x="112" y="811"/>
      <point x="89" y="815" type="curve" smooth="yes"/>
      <point x="72" y="818" type="line" smooth="yes"/>
      <point x="51" y="822"/>
      <point x="50" y="829"/>
      <point x="50" y="857" type="curve" smooth="yes"/>
      <point x="50" y="868" type="line"/>
      <point x="35" y="868" type="line"/>
      <point x="21" y="848"/>
      <point x="5" y="810"/>
      <point x="5" y="759" type="curve" smooth="yes"/>
      <point x="5" y="728"/>
      <point x="11" y="712"/>
      <point x="28" y="709" type="curve" smooth="yes"/>
      <point x="48" y="706" type="line" smooth="yes"/>
      <point x="52" y="705"/>
      <point x="55" y="700"/>
      <point x="53" y="682" type="curve" smooth="yes"/>
      <point x="50" y="658"/>
      <point x="30" y="548"/>
      <point x="30" y="511" type="curve" smooth="yes"/>
      <point x="30" y="475"/>
      <point x="50" y="449"/>
      <point x="82" y="410" type="curve" smooth="yes"/>
      <point x="370" y="72" type="line" smooth="yes"/>
      <point x="405" y="31"/>
      <point x="414" y="22"/>
    </contour>
    <contour>
      <point x="377" y="257" type="line"/>
      <point x="377" y="294"/>
      <point x="378" y="334"/>
      <point x="399" y="373" type="curve" smooth="yes"/>
      <point x="434" y="438" type="line"/>
      <point x="398" y="453" type="line"/>
      <point x="365" y="397" type="line" smooth="yes"/>
      <point x="348" y="368"/>
      <point x="329" y="331"/>
      <point x="329" y="308" type="curve"/>
    </contour>
    <contour>
      <point x="460" y="405" type="line"/>
      <point x="468" y="443"/>
      <point x="475" y="463"/>
      <point x="475" y="501" type="curve" smooth="yes"/>
      <point x="475" y="566"/>
      <point x="455" y="582"/>
      <point x="417" y="587" type="curve" smooth="yes"/>
      <point x="386" y="591" type="line" smooth="yes"/>
      <point x="368" y="593"/>
      <point x="359" y="610"/>
      <point x="359" y="630" type="curve" smooth="yes"/>
      <point x="359" y="647" type="line"/>
      <point x="325" y="647" type="line"/>
      <point x="311" y="593"/>
      <point x="306" y="546"/>
      <point x="306" y="513" type="curve" smooth="yes"/>
      <point x="306" y="458"/>
      <point x="320" y="428"/>
      <point x="361" y="421" type="curve" smooth="yes"/>
    </contour>
  </outline>
</glyph>
<glyph name="hatafpatah_zerowidthjoiner_siluqleft-hb" format="2">
  <anchor x="234" y="0" name="_bottom"/>
  <outline>
    <contour>
      <point x="67" y="-135" type="line"/>
      <point x="210" y="-135" type="line"/>
      <point x="213" y="-82" type="line"/>
      <point x="69" y="-82" type="line"/>
    </contour>
    <contour>
      <point x="244" y="-252" type="line"/>
      <point x="292" y="-249" type="line"/>
      <point x="292" y="-70" type="line"/>
      <point x="244" y="-73" type="line"/>
    </contour>
    <contour>
      <point x="360" y="-252" type="curve" smooth="yes"/>
      <point x="381" y="-252"/>
      <point x="398" y="-240"/>
      <point x="398" y="-212" type="curve" smooth="yes"/>
      <point x="398" y="-186"/>
      <point x="381" y="-174"/>
      <point x="360" y="-174" type="curve" smooth="yes"/>
      <point x="339" y="-174"/>
      <point x="323" y="-186"/>
      <point x="323" y="-212" type="curve"/>
      <point x="323" y="-240"/>
      <point x="339" y="-252"/>
    </contour>
    <contour>
      <point x="360" y="-148" type="curve" smooth="yes"/>
      <point x="381" y="-148"/>
      <point x="398" y="-136"/>
      <point x="398" y="-109" type="curve" smooth="yes"/>
      <point x="398" y="-82"/>
      <point x="381" y="-69"/>
      <point x="360" y="-69" type="curve" smooth="yes"/>
      <point x="339" y="-69"/>
      <point x="323" y="-82"/>
      <point x="323" y="-109" type="curve"/>
      <point x="323" y="-136"/>
      <point x="339" y="-148"/>
    </contour>
  </outline>
</glyph>
<glyph name="hatafsegol_zerowidthjoiner_siluqleft-hb" format="2">
  <anchor x="244" y="0" name="_bottom"/>
  <outline>
    <contour>
      <point x="275" y="-252" type="line"/>
      <point x="321" y="-249" type="line"/>
      <point x="321" y="-69" type="line"/>
      <point x="275" y="-72" type="line"/>
    </contour>
    <contour>
      <point x="159" y="-252" type="curve" smooth="yes"/>
      <point x="180" y="-252"/>
      <point x="198" y="-240"/>
      <point x="198" y="-212" type="curve" smooth="yes"/>
      <point x="198" y="-186"/>
      <point x="180" y="-174"/>
      <point x="159" y="-174" type="curve" smooth="yes"/>
      <point x="139" y="-174"/>
      <point x="122" y="-186"/>
      <point x="122" y="-212" type="curve"/>
      <point x="122" y="-240"/>
      <point x="139" y="-252"/>
    </contour>
    <contour>
      <point x="105" y="-148" type="curve" smooth="yes"/>
      <point x="126" y="-148"/>
      <point x="143" y="-136"/>
      <point x="143" y="-109" type="curve" smooth="yes"/>
      <point x="143" y="-82"/>
      <point x="126" y="-69"/>
      <point x="105" y="-69" type="curve" smooth="yes"/>
      <point x="84" y="-69"/>
      <point x="68" y="-82"/>
      <point x="68" y="-109" type="curve"/>
      <point x="68" y="-136"/>
      <point x="84" y="-148"/>
    </contour>
    <contour>
      <point x="213" y="-148" type="curve" smooth="yes"/>
      <point x="234" y="-148"/>
      <point x="251" y="-136"/>
      <point x="251" y="-109" type="curve" smooth="yes"/>
      <point x="251" y="-82"/>
      <point x="234" y="-69"/>
      <point x="213" y="-69" type="curve" smooth="yes"/>
      <point x="192" y="-69"/>
      <point x="176" y="-82"/>
      <point x="176" y="-109" type="curve"/>
      <point x="176" y="-136"/>
      <point x="192" y="-148"/>
    </contour>
    <contour>
      <point x="382" y="-252" type="curve" smooth="yes"/>
      <point x="403" y="-252"/>
      <point x="420" y="-240"/>
      <point x="420" y="-212" type="curve" smooth="yes"/>
      <point x="420" y="-186"/>
      <point x="403" y="-174"/>
      <point x="382" y="-174" type="curve" smooth="yes"/>
      <point x="361" y="-174"/>
      <point x="345" y="-186"/>
      <point x="345" y="-212" type="curve"/>
      <point x="345" y="-240"/>
      <point x="361" y="-252"/>
    </contour>
    <contour>
      <point x="382" y="-148" type="curve" smooth="yes"/>
      <point x="403" y="-148"/>
      <point x="420" y="-136"/>
      <point x="420" y="-109" type="curve" smooth="yes"/>
      <point x="420" y="-82"/>
      <point x="403" y="-69"/>
      <point x="382" y="-69" type="curve" smooth="yes"/>
      <point x="361" y="-69"/>
      <point x="345" y="-82"/>
      <point x="345" y="-109" type="curve"/>
      <point x="345" y="-136"/>
      <point x="361" y="-148"/>
    </contour>
  </outline>
</glyph>
